<?xml version="1.0" encoding="UTF-8"?>
<svg version="1.1" xmlns="http://www.w3.org/2000/svg" width="1024" height="1024">
<path d="M0 0 C337.92 0 675.84 0 1024 0 C1024 337.92 1024 675.84 1024 1024 C686.08 1024 348.16 1024 0 1024 C0 686.08 0 348.16 0 0 Z " fill="#000016" transform="translate(0,0)"/>
<path d="M0 0 C2.60520309 0.53130474 5.21598234 0.96742415 7.83886719 1.40209961 C38.55000117 6.96586696 69.85109489 21.00315992 95.56542969 38.52319336 C96.19416992 38.94971191 96.82291016 39.37623047 97.47070312 39.81567383 C107.32660546 46.53309159 116.63264357 53.62296048 125.56542969 61.52319336 C126.81839844 62.60987305 126.81839844 62.60987305 128.09667969 63.71850586 C139.60789786 73.84688288 150.08983266 84.5683343 159.28613281 96.83813477 C160.52425914 98.46896452 161.79418149 100.06738143 163.08105469 101.65991211 C170.09549686 110.45002282 175.95792093 119.78340707 181.56542969 129.52319336 C181.98824219 130.2521582 182.41105469 130.98112305 182.84667969 131.73217773 C202.93791019 166.79765346 214.07923146 207.1073119 213.87792969 247.52319336 C213.87519547 248.67540375 213.87519547 248.67540375 213.87240601 249.85089111 C213.7107621 290.84315506 206.50733483 330.62223679 187.69042969 367.46069336 C187.17899414 368.4695459 187.17899414 368.4695459 186.65722656 369.4987793 C185.63296654 371.51024355 184.60046013 373.51725387 183.56542969 375.52319336 C182.97503906 376.67432617 182.38464844 377.82545898 181.77636719 379.01147461 C178.16240971 385.90109674 174.20007313 392.42039341 169.7578125 398.80688477 C168.90627177 400.03258733 168.05982264 401.26183363 167.21679688 402.4934082 C157.14921585 417.19890198 146.10955339 430.14733102 133.56542969 442.77319336 C133.05677368 443.28729767 132.54811768 443.80140198 132.02404785 444.33108521 C125.20914307 451.20017015 118.1584705 457.50585238 110.56542969 463.52319336 C108.98035255 464.83358687 107.39676707 466.14578927 105.81542969 467.46069336 C90.20260754 479.89175554 72.57863047 490.02503009 54.56542969 498.52319336 C53.73720703 498.91434326 52.90898438 499.30549316 52.05566406 499.70849609 C45.33559328 502.82586226 38.51506401 505.52647712 31.56542969 508.08569336 C30.06109375 508.64546875 30.06109375 508.64546875 28.52636719 509.21655273 C26.52205098 509.96105003 24.51652546 510.70230028 22.50976562 511.44018555 C20.56835587 512.1542895 18.62884404 512.87357759 16.69140625 513.59838867 C10.95564671 515.72652563 5.21866476 517.55039325 -0.68457031 519.14819336 C-7.32420355 520.97444907 -13.88157388 522.97290761 -20.40722656 525.16772461 C-21.09535431 525.39735901 -21.78348206 525.62699341 -22.49246216 525.86358643 C-26.64228873 527.2485462 -26.64228873 527.2485462 -30.78063965 528.66729736 C-44.29808465 533.36341922 -44.29808465 533.36341922 -51.43457031 531.52319336 C-52.61974243 531.22699097 -52.61974243 531.22699097 -53.82885742 530.92480469 C-56.48530026 530.23750479 -59.11466634 529.48474803 -61.74707031 528.71069336 C-62.68494385 528.4393457 -63.62281738 528.16799805 -64.58911133 527.88842773 C-69.07772428 526.57327781 -73.50606535 525.20844283 -77.87207031 523.52319336 C-83.20237413 521.4743844 -88.67365561 520.0557631 -94.18457031 518.58569336 C-108.31881576 514.80142416 -121.92584149 510.1401648 -135.43457031 504.52319336 C-136.09005859 504.25297363 -136.74554688 503.98275391 -137.42089844 503.7043457 C-139.36581545 502.90061778 -141.3070752 502.08872148 -143.24707031 501.27319336 C-144.38789063 500.79366211 -145.52871094 500.31413086 -146.70410156 499.82006836 C-149.43457031 498.52319336 -149.43457031 498.52319336 -151.43457031 496.52319336 C-153.39945862 495.63540644 -153.39945862 495.63540644 -155.55957031 494.89819336 C-156.64625 494.50760742 -156.64625 494.50760742 -157.75488281 494.10913086 C-158.30917969 493.91577148 -158.86347656 493.72241211 -159.43457031 493.52319336 C-159.43457031 492.86319336 -159.43457031 492.20319336 -159.43457031 491.52319336 C-160.48644531 491.35819336 -161.53832031 491.19319336 -162.62207031 491.02319336 C-169.27517549 489.38059723 -174.75295202 485.20036495 -180.43457031 481.52319336 C-182.0373243 480.56249927 -183.64122629 479.60371334 -185.24707031 478.64819336 C-186.29894531 477.94694336 -187.35082031 477.24569336 -188.43457031 476.52319336 C-188.43457031 475.86319336 -188.43457031 475.20319336 -188.43457031 474.52319336 C-189.42457031 474.21381836 -189.42457031 474.21381836 -190.43457031 473.89819336 C-193.9211698 472.30016859 -196.65508571 470.21690121 -199.66503906 467.86303711 C-201.40081476 466.46366048 -201.40081476 466.46366048 -203.43457031 465.52319336 C-203.43457031 464.86319336 -203.43457031 464.20319336 -203.43457031 463.52319336 C-204.54832031 463.18288086 -204.54832031 463.18288086 -205.68457031 462.83569336 C-209.02656449 461.24065068 -210.12135788 459.41470889 -212.43457031 456.52319336 C-214.6771271 454.66460804 -216.97838452 452.91212105 -219.31347656 451.17163086 C-221.1817445 449.71968046 -222.78245842 448.20825335 -224.43457031 446.52319336 C-225.21832031 445.94569336 -226.00207031 445.36819336 -226.80957031 444.77319336 C-229.56995521 442.40714916 -231.33941327 440.02624983 -233.32128906 437.01147461 C-234.38073795 435.36330073 -234.38073795 435.36330073 -236.43457031 434.52319336 C-236.43457031 433.86319336 -236.43457031 433.20319336 -236.43457031 432.52319336 C-236.98371094 432.32983398 -237.53285156 432.13647461 -238.09863281 431.93725586 C-241.44696561 429.91033868 -243.48696605 426.9764545 -245.80957031 423.89819336 C-246.29707764 423.26373291 -246.78458496 422.62927246 -247.28686523 421.97558594 C-248.67645651 420.16334759 -250.05600857 418.34382553 -251.43457031 416.52319336 C-252.04171875 415.73557617 -252.64886719 414.94795898 -253.27441406 414.13647461 C-257.58445995 408.50026076 -261.60867344 402.65330228 -265.18457031 396.52319336 C-266.28050554 394.38295491 -266.28050554 394.38295491 -268.43457031 393.52319336 C-269.2422167 392.07469712 -269.9815715 390.58776749 -270.68457031 389.08569336 C-272.43746091 385.45617871 -274.30642759 382.00827342 -276.43457031 378.58569336 C-279.09730303 374.23656326 -281.23316888 369.78408382 -283.27832031 365.11694336 C-284.29886334 362.82761711 -285.39707813 360.61749661 -286.55957031 358.39819336 C-289.31294852 352.95859251 -291.43457031 347.6563567 -291.43457031 341.52319336 C-292.09457031 341.52319336 -292.75457031 341.52319336 -293.43457031 341.52319336 C-293.72908081 340.46575928 -293.72908081 340.46575928 -294.02954102 339.38696289 C-294.93437107 336.14042308 -295.84071169 332.89430675 -296.74707031 329.64819336 C-297.05580078 328.53959961 -297.36453125 327.43100586 -297.68261719 326.28881836 C-297.98876953 325.19311523 -298.29492188 324.09741211 -298.61035156 322.96850586 C-298.91682617 321.86877441 -299.22330078 320.76904297 -299.5390625 319.63598633 C-300.31591692 316.93563358 -301.16348593 314.272888 -302.03222656 311.60131836 C-303.95633174 305.24681789 -304.70177745 298.71545551 -305.55957031 292.14819336 C-305.8937501 289.6609774 -306.22961294 287.17398682 -306.56738281 284.68725586 C-306.78225342 283.05457764 -306.78225342 283.05457764 -307.00146484 281.38891602 C-307.35007514 278.66521637 -307.35007514 278.66521637 -307.97387695 276.64331055 C-308.70626481 273.27285156 -308.63858466 269.87192077 -308.67285156 266.43725586 C-308.6826001 265.63619415 -308.69234863 264.83513245 -308.70239258 264.00979614 C-309.09428429 223.26432476 -303.04237888 184.60217025 -285.43457031 147.52319336 C-285.12406738 146.86512695 -284.81356445 146.20706055 -284.49365234 145.52905273 C-277.22089875 130.23743268 -268.58458674 116.06929667 -258.43457031 102.52319336 C-258.00950195 101.95246094 -257.58443359 101.38172852 -257.14648438 100.79370117 C-249.87775675 91.09659501 -241.85833003 82.22615204 -233.43457031 73.52319336 C-232.95036621 73.02239258 -232.46616211 72.5215918 -231.96728516 72.00561523 C-194.25206982 33.19740082 -143.57451708 8.52680668 -90.43457031 -0.47680664 C-89.26023437 -0.68950195 -88.08589844 -0.90219727 -86.87597656 -1.12133789 C-59.32654994 -5.80844964 -27.35907125 -5.76914937 0 0 Z " fill="#010018" transform="translate(553.4345703125,249.476806640625)"/>
<path d="M0 0 C0.86189941 0.45068848 1.72379883 0.90137695 2.61181641 1.36572266 C5.51983436 2.89633722 8.41806742 4.44385605 11.3125 6 C12.22 6.48621826 13.1275 6.97243652 14.0625 7.47338867 C23.69854883 12.74596028 32.45033731 19.12754387 41 26 C41.772229 26.61875 41.772229 26.61875 42.56005859 27.25 C44.23391067 28.59651883 45.89926565 29.95289522 47.5625 31.3125 C48.09987793 31.7453833 48.63725586 32.1782666 49.19091797 32.62426758 C50.49911925 33.70450212 51.75490164 34.84759932 53 36 C53 36.66 53 37.32 53 38 C53.54398438 38.21011719 54.08796875 38.42023438 54.6484375 38.63671875 C57.86967383 40.50417968 60.15343971 43.07800777 62.625 45.8125 C63.15061523 46.39 63.67623047 46.9675 64.21777344 47.5625 C72.96992196 57.30236836 80.46343871 67.63034491 87 79 C87.33241699 79.57443848 87.66483398 80.14887695 88.00732422 80.74072266 C93.75373653 90.76187156 98.12547157 101.12799546 102 112 C102.39058594 113.08667969 102.78117187 114.17335938 103.18359375 115.29296875 C115.02064864 150.89625057 113.61691517 188.92884309 101 224 C100.65630371 224.98057373 100.65630371 224.98057373 100.30566406 225.98095703 C93.27251782 245.81973748 81.64336886 264.47674454 68.0859375 280.5078125 C66.11261782 282.86544912 64.27238444 285.28411458 62.4375 287.75 C59.63418083 291.3865638 56.58434262 294.29874765 53.05859375 297.2265625 C50.07116317 299.80017443 47.38200351 302.64279712 44.6640625 305.49609375 C43 307 43 307 41 307 C41 307.66 41 308.32 41 309 C38.97407931 310.74952071 36.94127758 312.38358262 34.8125 314 C33.50381408 315.0037861 32.1952221 316.00769468 30.88671875 317.01171875 C30.22591309 317.51622559 29.56510742 318.02073242 28.88427734 318.54052734 C27.2384407 319.81531504 25.62586149 321.13280881 24.01953125 322.45703125 C7.99228705 335.49944455 -10.86723802 345.35304351 -30 353 C-31.22082275 353.48871582 -31.22082275 353.48871582 -32.46630859 353.98730469 C-70.26477725 368.80935906 -108.45177863 366.9223465 -145.66601562 351.02783203 C-157.29997653 345.90450824 -168.24477682 339.75919928 -179 333 C-180.50626953 332.06414062 -180.50626953 332.06414062 -182.04296875 331.109375 C-202.38266842 318.04365699 -221.12762083 301.00297202 -236 282 C-236.7410498 281.06559082 -236.7410498 281.06559082 -237.49707031 280.11230469 C-245.38955917 270.14461487 -252.60089014 259.98901927 -259 249 C-259.39171387 248.3409668 -259.78342773 247.68193359 -260.18701172 247.00292969 C-270.55878819 229.39015628 -275.70363863 210.05322312 -279 190 C-279.11714355 189.30745117 -279.23428711 188.61490234 -279.35498047 187.90136719 C-282.18943528 170.62509135 -285.10289636 142.15434454 -275 127 C-274.9906543 127.61294922 -274.98130859 128.22589844 -274.97167969 128.85742188 C-274.72460926 141.81166376 -273.88654643 153.6020562 -270 166 C-269.71253906 166.98226562 -269.42507813 167.96453125 -269.12890625 168.9765625 C-259.96450855 198.54701907 -243.78638818 225.38064658 -224 249 C-222.56216654 250.79139907 -221.12467024 252.58306881 -219.6875 254.375 C-214.39691438 260.83819361 -208.74944599 266.94606622 -203 273 C-202.21496094 273.82757812 -201.42992187 274.65515625 -200.62109375 275.5078125 C-195.11780539 281.15877408 -189.17776247 286.10592843 -183 291 C-181.89263356 291.89770329 -180.78588421 292.79616821 -179.6796875 293.6953125 C-171.79506764 300.05685566 -163.68038868 305.76789886 -155 311 C-154.13342773 311.53028809 -153.26685547 312.06057617 -152.37402344 312.60693359 C-126.22134228 328.29767945 -96.73187943 339.98163452 -66.1875 332.8125 C-52.95449841 329.45599311 -40.97757607 324.26217119 -28.90625 317.98779297 C-27.16288697 317.08440582 -25.41001303 316.19943413 -23.65625 315.31640625 C-2.61827422 304.45893608 20.64514726 288.06838647 35 269 C34.62302979 268.59797363 34.24605957 268.19594727 33.85766602 267.78173828 C27.24930142 260.72973101 20.65446287 253.67194076 14.21484375 246.46484375 C10.76879401 242.6298219 7.26919581 238.84438344 3.7734375 235.0546875 C1.70005028 232.79106049 -0.32091408 230.48704092 -2.33203125 228.16796875 C-6.78369616 223.06200361 -11.45855167 218.17447881 -16.12695312 213.26757812 C-28 200.73301663 -28 200.73301663 -28 198 C-28.66 198 -29.32 198 -30 198 C-35 192.52380952 -35 192.52380952 -35 190 C-35.66 190 -36.32 190 -37 190 C-38.3046875 188.70703125 -38.3046875 188.70703125 -39.875 186.8125 C-43.15635431 182.94764127 -46.54832967 179.21170936 -50 175.5 C-56.8748546 168.07786175 -63.45836611 160.50951086 -69.7890625 152.61328125 C-72.06743676 149.92029118 -74.47464777 147.46141926 -77 145 C-81.5673003 140.51329912 -85.98083848 135.97717845 -90.16015625 131.125 C-93.70893024 127.02620372 -97.36719009 123.02422377 -101 119 C-103.25108001 116.49966546 -105.50129216 113.99856202 -107.75 111.49609375 C-109.24482689 109.83777017 -110.7448058 108.18407559 -112.25 106.53515625 C-116.97410455 101.34356219 -121.48206456 96.03081906 -125.859375 90.54296875 C-128.00872118 87.90535781 -128.00872118 87.90535781 -130.703125 85.36328125 C-133 83 -133 83 -134 80 C-134.66 80 -135.32 80 -136 80 C-137.26953125 78.7421875 -137.26953125 78.7421875 -138.8125 76.875 C-142.26516892 72.80707561 -145.85590359 68.89528839 -149.5 65 C-153.4506916 60.76671958 -157.34701681 56.50657651 -161.12890625 52.12109375 C-163.70392946 49.20201734 -166.35304715 46.35379654 -169 43.5 C-172.77958846 39.42433606 -176.51489916 35.32636765 -180.1328125 31.10546875 C-181.67926819 29.36166202 -183.25626159 27.67167276 -184.8671875 25.98828125 C-185.37306396 25.45404541 -185.87894043 24.91980957 -186.40014648 24.36938477 C-187.4071213 23.30867904 -188.42202655 22.25543308 -189.44555664 21.21069336 C-192.34073695 18.1451785 -193 17.40541135 -193 13 C-190.70715266 11.18547209 -188.562729 9.72715873 -186.0625 8.25 C-185.33957764 7.81389404 -184.61665527 7.37778809 -183.87182617 6.9284668 C-164.93156719 -4.27790419 -144.40592816 -11.17818683 -123 -16 C-122.10410156 -16.21398437 -121.20820313 -16.42796875 -120.28515625 -16.6484375 C-81.05532789 -25.42269409 -35.26266317 -18.53059867 0 0 Z " fill="#2C3457" transform="translate(591,326)"/>
<path d="M0 0 C2.60520309 0.53130474 5.21598234 0.96742415 7.83886719 1.40209961 C38.55000117 6.96586696 69.85109489 21.00315992 95.56542969 38.52319336 C96.19416992 38.94971191 96.82291016 39.37623047 97.47070312 39.81567383 C107.32660546 46.53309159 116.63264357 53.62296048 125.56542969 61.52319336 C126.81839844 62.60987305 126.81839844 62.60987305 128.09667969 63.71850586 C139.60789786 73.84688288 150.08983266 84.5683343 159.28613281 96.83813477 C160.52425914 98.46896452 161.79418149 100.06738143 163.08105469 101.65991211 C170.09549686 110.45002282 175.95792093 119.78340707 181.56542969 129.52319336 C181.98824219 130.2521582 182.41105469 130.98112305 182.84667969 131.73217773 C200.18759021 161.99748563 210.35122409 195.86888474 213.56542969 230.52319336 C213.70851563 231.73233398 213.85160156 232.94147461 213.99902344 234.18725586 C214.0828125 235.32936523 214.16660156 236.47147461 214.25292969 237.64819336 C214.33929687 238.64077148 214.42566406 239.63334961 214.51464844 240.65600586 C212.92137134 245.46862063 208.81139732 247.09408175 204.56542969 249.52319336 C203.64689209 250.06524414 202.72835449 250.60729492 201.78198242 251.16577148 C198.85069271 252.87699477 195.89954948 254.54811498 192.94042969 256.21069336 C191.94269531 256.77852539 190.94496094 257.34635742 189.91699219 257.93139648 C188.94246094 258.48118164 187.96792969 259.0309668 186.96386719 259.59741211 C186.0942334 260.08814209 185.22459961 260.57887207 184.32861328 261.08447266 C181.13310055 262.74829635 177.89081385 264.13825839 174.56542969 265.52319336 C174.54561035 264.41508301 174.52579102 263.30697266 174.50537109 262.1652832 C174.42831209 257.98653436 174.33976529 253.80808929 174.24804688 249.62963867 C174.21016544 247.83380199 174.17524804 246.0378999 174.14355469 244.24194336 C173.95174668 233.50069495 173.42790207 223.12453908 171.56542969 212.52319336 C171.35402344 211.22124023 171.14261719 209.91928711 170.92480469 208.57788086 C163.56022587 170.14988624 145.17738175 134.00367692 118.28027344 105.54663086 C116.56542969 103.52319336 116.56542969 103.52319336 115.56542969 100.52319336 C114.90542969 100.52319336 114.24542969 100.52319336 113.56542969 100.52319336 C111.17731134 98.27980946 108.94185997 95.92241378 106.69433594 93.53881836 C79.54478242 65.44276665 39.16853582 45.67875512 1.31542969 37.64819336 C0.41945068 37.45717041 -0.47652832 37.26614746 -1.3996582 37.06933594 C-17.11870939 33.97878686 -33.01148979 33.10812925 -48.99707031 33.14819336 C-50.29609787 33.1495076 -50.29609787 33.1495076 -51.62136841 33.15084839 C-108.84273254 33.34049476 -161.6172803 56.55224559 -203.49707031 94.89819336 C-204.05789307 95.41043457 -204.61871582 95.92267578 -205.1965332 96.45043945 C-207.62483525 98.70339529 -209.58786295 100.75313231 -211.43457031 103.52319336 C-212.09457031 103.52319336 -212.75457031 103.52319336 -213.43457031 103.52319336 C-213.68078125 104.09166992 -213.92699219 104.66014648 -214.18066406 105.24584961 C-215.64408212 107.90370858 -217.40030507 109.76778015 -219.49707031 111.96069336 C-242.80930641 137.43977192 -258.92680484 172.82226504 -265.43457031 206.52319336 C-265.71300781 207.78905273 -265.99144531 209.05491211 -266.27832031 210.35913086 C-269.91469764 228.75064883 -268.69930316 247.86970958 -268.43457031 266.52319336 C-274.06815345 264.37607787 -279.18401788 261.46520533 -284.43457031 258.52319336 C-285.4701709 257.94617676 -286.50577148 257.36916016 -287.57275391 256.7746582 C-290.78088355 254.95991391 -293.95233609 253.09157056 -297.12207031 251.21069336 C-298.7646582 250.29126953 -298.7646582 250.29126953 -300.44042969 249.35327148 C-307.9219552 244.85875553 -307.9219552 244.85875553 -309.19555664 241.54052734 C-309.25564344 239.08722015 -308.89501792 236.93498694 -308.43457031 234.52319336 C-308.19715126 232.27755485 -307.96448485 230.03141118 -307.73535156 227.78491211 C-307.4161192 225.25886324 -307.08623597 222.73414315 -306.74707031 220.21069336 C-306.65809479 219.54812531 -306.56911926 218.88555725 -306.47744751 218.20291138 C-303.1355229 193.63671729 -296.07572254 169.93160585 -285.43457031 147.52319336 C-285.12406738 146.86512695 -284.81356445 146.20706055 -284.49365234 145.52905273 C-277.22089875 130.23743268 -268.58458674 116.06929667 -258.43457031 102.52319336 C-258.00950195 101.95246094 -257.58443359 101.38172852 -257.14648438 100.79370117 C-249.87775675 91.09659501 -241.85833003 82.22615204 -233.43457031 73.52319336 C-232.95036621 73.02239258 -232.46616211 72.5215918 -231.96728516 72.00561523 C-194.25206982 33.19740082 -143.57451708 8.52680668 -90.43457031 -0.47680664 C-89.26023437 -0.68950195 -88.08589844 -0.90219727 -86.87597656 -1.12133789 C-59.32654994 -5.80844964 -27.35907125 -5.76914937 0 0 Z " fill="#DFE0F6" transform="translate(553.4345703125,249.476806640625)"/>
<path d="M0 0 C1.04005702 3.38018531 1.08004482 6.4780279 1 10 C0.34 10.33 -0.32 10.66 -1 11 C-2.57310563 15.62678128 -3.3245207 20.17514782 -4 25 C-4.495 25.495 -4.495 25.495 -5 26 C-5.1641336 27.53799261 -5.27936843 29.08123327 -5.375 30.625 C-5.71122507 35.04635962 -6.50955275 39.02816851 -7.625 43.3125 C-9.61431422 52.57046232 -8.91305951 61.81908821 -8.42041016 71.21411133 C-8.09439426 77.56156689 -8.04365041 83.54444983 -8.81396484 89.85131836 C-9.67337654 99.77741063 -5.25525987 111.08251731 -2.5625 120.5 C-2.27439453 121.51465332 -1.98628906 122.52930664 -1.68945312 123.57470703 C-0.15399198 128.77449294 1.58568921 133.55766928 4.13208008 138.34667969 C5.15747153 140.29997108 5.91772737 142.28726755 6.625 144.375 C7.71027494 147.98385139 7.71027494 147.98385139 10 150 C10.66666667 151.66666667 11.33333333 153.33333333 12 155 C12.96689203 156.71207634 13.93561112 158.42319937 14.92089844 160.12475586 C15.91096326 161.84527348 16.8692366 163.58398361 17.82421875 165.32421875 C25.06121749 178.38830207 25.06121749 178.38830207 34.76171875 189.64453125 C36 191 36 191 36 194 C36.66 194 37.32 194 38 194 C42 198.47058824 42 198.47058824 42 201 C42.66 201 43.32 201 44 201 C46.125 202.8125 46.125 202.8125 48 205 C48 205.99 48 206.98 48 208 C48.59554687 208.25652344 49.19109375 208.51304687 49.8046875 208.77734375 C52.21239436 210.11829081 53.40605636 211.42461783 55.125 213.5625 C67.51281644 228.21475601 87.34837044 245.10321835 105 253 C105 253.66 105 254.32 105 255 C105.69222656 255.25136719 106.38445312 255.50273438 107.09765625 255.76171875 C110.41439651 257.17680174 113.35180986 258.94681683 116.4375 260.8125 C122.26373417 264.2524203 128.07074723 266.67469666 134.55078125 268.69921875 C137.40775897 269.77665202 139.70482548 270.92801891 142.3203125 272.453125 C146.91132149 275.074969 151.48720489 276.64321836 156.5625 278.0625 C157.44107666 278.31362549 158.31965332 278.56475098 159.22485352 278.82348633 C160.99889182 279.32646605 162.77451113 279.82390682 164.55175781 280.31542969 C166.65645048 280.90393769 168.74606329 281.52558301 170.8359375 282.1640625 C184.58504479 286.07107563 197.25812553 286.4749785 212 288 C212 309.78 212 331.56 212 354 C193.97132971 349.49283243 193.97132971 349.49283243 185.875 346.625 C178.52179286 344.09388119 171.14132765 341.86922054 163.625 339.875 C149.69939334 336.1662006 136.30389837 331.5318023 123 326 C122.34451172 325.72978027 121.68902344 325.45956055 121.01367188 325.18115234 C119.06875486 324.37742442 117.12749511 323.56552812 115.1875 322.75 C114.04667969 322.27046875 112.90585937 321.7909375 111.73046875 321.296875 C109 320 109 320 107 318 C105.03511169 317.11221308 105.03511169 317.11221308 102.875 316.375 C101.78832031 315.98441406 101.78832031 315.98441406 100.6796875 315.5859375 C100.12539063 315.39257812 99.57109375 315.19921875 99 315 C99 314.34 99 313.68 99 313 C97.948125 312.835 96.89625 312.67 95.8125 312.5 C89.15939482 310.85740387 83.6816183 306.67717159 78 303 C76.39724602 302.03930591 74.79334403 301.08051998 73.1875 300.125 C72.135625 299.42375 71.08375 298.7225 70 298 C70 297.34 70 296.68 70 296 C69.01 295.690625 69.01 295.690625 68 295.375 C64.51340051 293.77697523 61.77948461 291.69370785 58.76953125 289.33984375 C57.03375555 287.94046713 57.03375555 287.94046713 55 287 C55 286.34 55 285.68 55 285 C53.88625 284.6596875 53.88625 284.6596875 52.75 284.3125 C49.40800582 282.71745732 48.31321243 280.89151553 46 278 C43.75744321 276.14141468 41.45618579 274.38892769 39.12109375 272.6484375 C37.25282581 271.1964871 35.6521119 269.68506 34 268 C33.21625 267.4225 32.4325 266.845 31.625 266.25 C28.8646151 263.8839558 27.09515704 261.50305647 25.11328125 258.48828125 C24.05383237 256.84010737 24.05383237 256.84010737 22 256 C22 255.34 22 254.68 22 254 C21.45085937 253.80664062 20.90171875 253.61328125 20.3359375 253.4140625 C16.9876047 251.38714532 14.94760426 248.45326114 12.625 245.375 C12.13749268 244.74053955 11.64998535 244.1060791 11.14770508 243.45239258 C9.7581138 241.64015423 8.37856174 239.82063217 7 238 C6.39285156 237.21238281 5.78570312 236.42476562 5.16015625 235.61328125 C0.85011036 229.9770674 -3.17410313 224.13010892 -6.75 218 C-7.84593522 215.85976155 -7.84593522 215.85976155 -10 215 C-10.80764639 213.55150376 -11.54700119 212.06457413 -12.25 210.5625 C-14.0028906 206.93298535 -15.87185727 203.48508006 -18 200.0625 C-20.66273272 195.7133699 -22.79859856 191.26089046 -24.84375 186.59375 C-25.86429303 184.30442375 -26.96250782 182.09430325 -28.125 179.875 C-30.87837821 174.43539915 -33 169.13316334 -33 163 C-33.66 163 -34.32 163 -35 163 C-35.2945105 161.94256592 -35.2945105 161.94256592 -35.5949707 160.86376953 C-36.49980076 157.61722972 -37.40614137 154.37111339 -38.3125 151.125 C-38.62123047 150.01640625 -38.92996094 148.9078125 -39.24804688 147.765625 C-39.55419922 146.66992188 -39.86035156 145.57421875 -40.17578125 144.4453125 C-40.48225586 143.34558105 -40.78873047 142.24584961 -41.10449219 141.11279297 C-41.88134661 138.41244022 -42.72891562 135.74969464 -43.59765625 133.078125 C-45.52176142 126.72362453 -46.26720714 120.19226215 -47.125 113.625 C-47.45917979 111.13778404 -47.79504263 108.65079346 -48.1328125 106.1640625 C-48.27605957 105.07561035 -48.41930664 103.9871582 -48.56689453 102.86572266 C-48.91861912 100.13305223 -48.91861912 100.13305223 -49.5480957 98.06298828 C-50.22395713 94.97761331 -50.11058341 91.9823523 -50.09765625 88.828125 C-50.0962413 88.1457074 -50.09482635 87.46328979 -50.09336853 86.76019287 C-50.08779084 84.59008316 -50.07524254 82.4200783 -50.0625 80.25 C-50.05748211 78.77474108 -50.05291971 77.29948053 -50.04882812 75.82421875 C-50.03782875 72.21611202 -50.02057953 68.60806625 -50 65 C-42.14847376 68.73882202 -34.87238039 73.28923758 -27.48828125 77.8671875 C-26.51246094 78.46789062 -25.53664063 79.06859375 -24.53125 79.6875 C-23.22510742 80.49767578 -23.22510742 80.49767578 -21.89257812 81.32421875 C-18.33920284 83.3828251 -14.68985262 85.20067926 -11 87 C-11.02094727 85.94425781 -11.04189453 84.88851562 -11.06347656 83.80078125 C-11.42948285 63.54486058 -11.72578971 43.83641864 -7 24 C-6.67926514 22.6389917 -6.67926514 22.6389917 -6.35205078 21.25048828 C-2.81574103 6.54853534 -2.81574103 6.54853534 0 0 Z " fill="#11123B" transform="translate(295,428)"/>
<path d="M0 0 C1.16325954 43.08368649 -6.10592913 85.23495816 -25.875 123.9375 C-26.21595703 124.61006836 -26.55691406 125.28263672 -26.90820312 125.97558594 C-27.93246314 127.98705019 -28.96496956 129.99406051 -30 132 C-30.59039063 133.15113281 -31.18078125 134.30226563 -31.7890625 135.48828125 C-35.40301998 142.37790338 -39.36535656 148.89720005 -43.80761719 155.28369141 C-44.65915792 156.50939397 -45.50560704 157.73864027 -46.34863281 158.97021484 C-56.41621384 173.67570862 -67.4558763 186.62413766 -80 199.25 C-80.50865601 199.76410431 -81.01731201 200.27820862 -81.54138184 200.80789185 C-88.35628661 207.67697679 -95.40695919 213.98265902 -103 220 C-104.58507714 221.31039351 -106.16866262 222.62259591 -107.75 223.9375 C-123.36282214 236.36856218 -140.98679921 246.50183673 -159 255 C-160.24233398 255.58672485 -160.24233398 255.58672485 -161.50976562 256.18530273 C-168.22983641 259.3026689 -175.05036568 262.00328376 -182 264.5625 C-183.50433594 265.12227539 -183.50433594 265.12227539 -185.0390625 265.69335938 C-187.04337871 266.43785667 -189.04890423 267.17910692 -191.05566406 267.91699219 C-192.99707382 268.63109614 -194.93658565 269.35038423 -196.87402344 270.07519531 C-202.60992037 272.20338325 -208.34705717 274.02585887 -214.25 275.625 C-225.20391839 278.65987853 -235.9894753 282.17927633 -246.77832031 285.74853516 C-247.43329498 285.9634259 -248.08826965 286.17831665 -248.76309204 286.39971924 C-250.55881283 286.98890454 -252.35294487 287.58292566 -254.14697266 288.17724609 C-257 289 -257 289 -260 289 C-260 267.22 -260 245.44 -260 223 C-252.41 222.34 -244.82 221.68 -237 221 C-232.90898704 220.28554644 -229.05334457 219.57510235 -225.0625 218.5625 C-224.18400391 218.35818359 -223.30550781 218.15386719 -222.40039062 217.94335938 C-217.08995515 216.67028261 -212.07309541 215.00475955 -207 213 C-205.7728125 212.55140625 -204.545625 212.1028125 -203.28125 211.640625 C-179.59591913 202.96782457 -158.50992573 191.74018335 -138 177 C-137.38785645 176.56187988 -136.77571289 176.12375977 -136.14501953 175.67236328 C-123.58709711 166.59855348 -112.65104217 155.70843145 -101.6875 144.8125 C-101.04699707 144.17675049 -100.40649414 143.54100098 -99.74658203 142.88598633 C-99.15345215 142.29068115 -98.56032227 141.69537598 -97.94921875 141.08203125 C-97.16550903 140.29662964 -97.16550903 140.29662964 -96.3659668 139.49536133 C-94.78195353 137.83718261 -94.78195353 137.83718261 -93 135 C-92.34 135 -91.68 135 -91 135 C-90.72615479 134.41460449 -90.45230957 133.82920898 -90.17016602 133.22607422 C-89.0328306 131.06245554 -87.79226975 129.2957297 -86.27734375 127.3828125 C-85.74351074 126.7012207 -85.20967773 126.01962891 -84.65966797 125.31738281 C-84.09135254 124.59389648 -83.52303711 123.87041016 -82.9375 123.125 C-74.66707426 112.41140095 -67.60171926 101.39092 -61.25 89.4375 C-60.80188965 88.59928711 -60.3537793 87.76107422 -59.89208984 86.89746094 C-48.66919101 65.31913371 -42.34023658 41.1093123 -40 17 C-39.01 18.98 -39.01 18.98 -38 21 C-27.54393242 15.63652492 -17.36822231 9.93955143 -7.33886719 3.81152344 C-6.52579102 3.31555664 -5.71271484 2.81958984 -4.875 2.30859375 C-4.15054688 1.86314209 -3.42609375 1.41769043 -2.6796875 0.95874023 C-1 0 -1 0 0 0 Z " fill="#58199A" transform="translate(767,493)"/>
<path d="M0 0 C0.66 0.33 1.32 0.66 2 1 C2.57836914 2.91430664 2.57836914 2.91430664 3.03515625 5.41015625 C3.20466797 6.31830078 3.37417969 7.22644531 3.54882812 8.16210938 C3.71833984 9.11923828 3.88785156 10.07636719 4.0625 11.0625 C4.23587891 11.99255859 4.40925781 12.92261719 4.58789062 13.88085938 C9.98104781 43.28493092 7.08248129 71.97379244 -3 100 C-3.34369629 100.98057373 -3.34369629 100.98057373 -3.69433594 101.98095703 C-10.72748218 121.81973748 -22.35663114 140.47674454 -35.9140625 156.5078125 C-37.88738218 158.86544912 -39.72761556 161.28411458 -41.5625 163.75 C-44.36581917 167.3865638 -47.41565738 170.29874765 -50.94140625 173.2265625 C-53.92883683 175.80017443 -56.61799649 178.64279712 -59.3359375 181.49609375 C-61 183 -61 183 -63 183 C-63 183.66 -63 184.32 -63 185 C-65.02592069 186.74952071 -67.05872242 188.38358262 -69.1875 190 C-70.49618592 191.0037861 -71.8047779 192.00769468 -73.11328125 193.01171875 C-73.77408691 193.51622559 -74.43489258 194.02073242 -75.11572266 194.54052734 C-76.7615593 195.81531504 -78.37413851 197.13280881 -79.98046875 198.45703125 C-96.00771295 211.49944455 -114.86723802 221.35304351 -134 229 C-135.22082275 229.48871582 -135.22082275 229.48871582 -136.46630859 229.98730469 C-174.26477725 244.80935906 -212.45177863 242.9223465 -249.66601562 227.02783203 C-261.29997653 221.90450824 -272.24477682 215.75919928 -283 209 C-284.50626953 208.06414062 -284.50626953 208.06414062 -286.04296875 207.109375 C-306.38266842 194.04365699 -325.12762083 177.00297202 -340 158 C-340.4940332 157.37706055 -340.98806641 156.75412109 -341.49707031 156.11230469 C-349.38955917 146.14461487 -356.60089014 135.98901927 -363 125 C-363.39171387 124.3409668 -363.78342773 123.68193359 -364.18701172 123.00292969 C-374.55878819 105.39015628 -379.70363863 86.05322312 -383 66 C-383.11714355 65.30745117 -383.23428711 64.61490234 -383.35498047 63.90136719 C-386.18943528 46.62509135 -389.10289636 18.15434454 -379 3 C-378.9906543 3.61294922 -378.98130859 4.22589844 -378.97167969 4.85742188 C-378.72460926 17.81166376 -377.88654643 29.6020562 -374 42 C-373.71253906 42.98226562 -373.42507813 43.96453125 -373.12890625 44.9765625 C-363.96450855 74.54701907 -347.78638818 101.38064658 -328 125 C-326.56216654 126.79139907 -325.12467024 128.58306881 -323.6875 130.375 C-318.39691438 136.83819361 -312.74944599 142.94606622 -307 149 C-306.21496094 149.82757812 -305.42992187 150.65515625 -304.62109375 151.5078125 C-299.11780539 157.15877408 -293.17776247 162.10592843 -287 167 C-285.89263356 167.89770329 -284.78588421 168.79616821 -283.6796875 169.6953125 C-275.79506764 176.05685566 -267.68038868 181.76789886 -259 187 C-258.13342773 187.53028809 -257.26685547 188.06057617 -256.37402344 188.60693359 C-230.22134228 204.29767945 -200.73187943 215.98163452 -170.1875 208.8125 C-156.95449841 205.45599311 -144.97757607 200.26217119 -132.90625 193.98779297 C-131.16288697 193.08440582 -129.41001303 192.19943413 -127.65625 191.31640625 C-107.19662836 180.75741835 -89.47380097 165.91391368 -73 150 C-72.18273437 149.21238281 -71.36546875 148.42476562 -70.5234375 147.61328125 C-66.10695589 143.27353388 -62.01739604 138.70838816 -58 134 C-57.21109375 133.10023438 -56.4221875 132.20046875 -55.609375 131.2734375 C-44.20558206 118.16907895 -33.5385213 104.15066889 -25 89 C-24.61392578 88.31534668 -24.22785156 87.63069336 -23.83007812 86.92529297 C-10.69429426 63.4048625 -1.34487218 39.5724159 -0.4375 12.5 C-0.39431641 11.29601562 -0.35113281 10.09203125 -0.30664062 8.8515625 C-0.20126832 5.90113807 -0.09914097 2.95063929 0 0 Z " fill="#5B1C9D" transform="translate(695,450)"/>
<path d="M0 0 C3.59469482 3.49198926 6.78775991 7.14531189 10 11 C12.29962351 13.3617755 14.64952362 15.66237893 17.0234375 17.94921875 C18.09464844 18.99529297 18.09464844 18.99529297 19.1875 20.0625 C19.86167969 20.71347656 20.53585937 21.36445313 21.23046875 22.03515625 C22.95133286 23.94596121 23.98089561 25.6534468 25 28 C24.10539063 28.61746094 23.21078125 29.23492187 22.2890625 29.87109375 C15.58779481 34.54598588 9.23788949 39.31824286 3.25 44.90234375 C1.09014257 46.91596083 -1.12661549 48.83639333 -3.375 50.75 C-6.29100302 53.27210745 -8.6113334 55.96823085 -11 59 C-11.66 59 -12.32 59 -13 59 C-13.24621094 59.56847656 -13.49242187 60.13695312 -13.74609375 60.72265625 C-15.20951181 63.38051522 -16.96573476 65.24458679 -19.0625 67.4375 C-42.3747361 92.91657856 -58.49223453 128.29907168 -65 162 C-65.2784375 163.26585937 -65.556875 164.53171875 -65.84375 165.8359375 C-69.48012733 184.22745548 -68.26473285 203.34651622 -68 222 C-73.63358314 219.85288451 -78.74944756 216.94201197 -84 214 C-85.03560059 213.4229834 -86.07120117 212.8459668 -87.13818359 212.25146484 C-90.34631324 210.43672055 -93.51776577 208.5683772 -96.6875 206.6875 C-98.33008789 205.76807617 -98.33008789 205.76807617 -100.00585938 204.83007812 C-107.48738489 200.33556217 -107.48738489 200.33556217 -108.76098633 197.01733398 C-108.82107313 194.5640268 -108.46044761 192.41179358 -108 190 C-107.76258094 187.75436149 -107.52991454 185.50821782 -107.30078125 183.26171875 C-106.98154889 180.73566989 -106.65166566 178.21094979 -106.3125 175.6875 C-106.22352448 175.02493195 -106.13454895 174.36236389 -106.0428772 173.67971802 C-102.70095259 149.11352393 -95.64115223 125.40841249 -85 103 C-84.68949707 102.34193359 -84.37899414 101.68386719 -84.05908203 101.00585938 C-76.78632844 85.71423932 -68.15001643 71.54610331 -58 58 C-57.57493164 57.42926758 -57.14986328 56.85853516 -56.71191406 56.27050781 C-49.44318643 46.57340165 -41.42375972 37.70295868 -33 29 C-32.5157959 28.49919922 -32.0315918 27.99839844 -31.53271484 27.48242188 C-22.89783688 18.59730237 -13.64079024 10.85232263 -3.87890625 3.2578125 C-1.87210991 1.70488259 -1.87210991 1.70488259 0 0 Z " fill="#A97EFC" transform="translate(353,294)"/>
<path d="M0 0 C1.16325954 43.08368649 -6.10592913 85.23495816 -25.875 123.9375 C-26.21595703 124.61006836 -26.55691406 125.28263672 -26.90820312 125.97558594 C-27.93246314 127.98705019 -28.96496956 129.99406051 -30 132 C-30.59039063 133.15113281 -31.18078125 134.30226563 -31.7890625 135.48828125 C-35.73029413 143.00181644 -40.15150589 150.04440415 -45 157 C-45.46100098 157.66612305 -45.92200195 158.33224609 -46.39697266 159.01855469 C-60.33268719 179.12924023 -60.33268719 179.12924023 -65 184 C-67 184 -67 184 -68.41015625 182.6015625 C-68.95542969 181.94929687 -69.50070312 181.29703125 -70.0625 180.625 C-72.82817409 177.37058933 -75.63308192 174.16586167 -78.5 171 C-81.75844063 167.38929552 -84.98014904 163.75121001 -88.16796875 160.078125 C-89.54952018 158.51099203 -90.95158429 156.96190805 -92.36328125 155.421875 C-93.57564453 154.09929687 -93.57564453 154.09929687 -94.8125 152.75 C-95.56144531 151.94046875 -96.31039062 151.1309375 -97.08203125 150.296875 C-98.7964109 148.24380935 -99.94224795 146.44010525 -101 144 C-99.71520959 142.49410612 -98.42195918 140.99542625 -97.125 139.5 C-96.40570312 138.6646875 -95.68640625 137.829375 -94.9453125 136.96875 C-93.98238281 135.99421875 -93.98238281 135.99421875 -93 135 C-92.34 135 -91.68 135 -91 135 C-90.72615479 134.41460449 -90.45230957 133.82920898 -90.17016602 133.22607422 C-89.0328306 131.06245554 -87.79226975 129.2957297 -86.27734375 127.3828125 C-85.47659424 126.3604248 -85.47659424 126.3604248 -84.65966797 125.31738281 C-84.09135254 124.59389648 -83.52303711 123.87041016 -82.9375 123.125 C-74.66707426 112.41140095 -67.60171926 101.39092 -61.25 89.4375 C-60.80188965 88.59928711 -60.3537793 87.76107422 -59.89208984 86.89746094 C-48.66919101 65.31913371 -42.34023658 41.1093123 -40 17 C-39.34 18.32 -38.68 19.64 -38 21 C-27.54393242 15.63652492 -17.36822231 9.93955143 -7.33886719 3.81152344 C-6.52579102 3.31555664 -5.71271484 2.81958984 -4.875 2.30859375 C-4.15054688 1.86314209 -3.42609375 1.41769043 -2.6796875 0.95874023 C-1 0 -1 0 0 0 Z " fill="#A93EFC" transform="translate(767,493)"/>
<path d="M0 0 C3.74487992 2.68115917 6.88501283 5.61750439 10 9 C10.88945313 9.89912109 10.88945313 9.89912109 11.796875 10.81640625 C20.93172425 20.56175285 21.55283373 32.25637299 21.33984375 44.9609375 C20.88383455 55.14451223 16.09034159 63.81601239 9 71 C2.31470679 76.84182163 -4.48160344 80.55631087 -13 83 C-13.62777344 83.19207031 -14.25554688 83.38414062 -14.90234375 83.58203125 C-28.38366416 86.26825338 -40.82077833 82.44735851 -52 75 C-59.87595211 68.78214307 -66.35356738 60.03825873 -68.66796875 50.14453125 C-70.13230911 36.27636666 -70.03157557 23.21763958 -61.25 11.6875 C-59.86402869 10.09770938 -58.44816549 8.53335169 -57 7 C-56.071875 6.01 -56.071875 6.01 -55.125 5 C-40.51022712 -9.12761378 -17.09543409 -9.65118878 0 0 Z " fill="#FDFDFD" transform="translate(621,415)"/>
<path d="M0 0 C8.1519278 7.54486934 12.93337015 17.38181975 13.68359375 28.41796875 C14.08694587 42.09601482 10.87778898 53.19066309 1.3125 63.375 C-4.24980632 69.20892637 -10.20601936 72.47309236 -17.6875 75.375 C-18.780625 75.808125 -19.87375 76.24125 -21 76.6875 C-36.11807396 79.50612396 -48.07469633 76.39416124 -60.66015625 68.0703125 C-68.70277835 61.87804309 -74.39413839 52.1884775 -76.6875 42.375 C-77.07215911 39.04829971 -77.11903791 35.78351655 -77.0625 32.4375 C-77.04509766 31.11492187 -77.04509766 31.11492187 -77.02734375 29.765625 C-76.70506296 16.96918187 -72.49190487 7.19050504 -63.29296875 -2.0234375 C-44.18986631 -18.20842822 -18.62991357 -15.11127897 0 0 Z " fill="#FCFDFD" transform="translate(446.6875,421.625)"/>
<path d="M0 0 C3.2163497 1.84590505 5.49304218 4.29431991 8 7 C13.59771047 12.42655745 18.61098846 16.39049778 26 19 C27.0725 19.4125 28.145 19.825 29.25 20.25 C42.54502292 22.90900458 55.23909852 20.09317402 66.64453125 12.85546875 C70.26753251 10.00152912 73.16517435 6.62522388 76.08984375 3.07421875 C79.05103694 -0.14131005 82.06266025 -0.24450808 86.25 -0.4375 C91.5302894 -0.41649089 94.05183414 0.82167305 97.7578125 4.4921875 C100.14074509 7.384678 100.40048583 9.93686888 100.33984375 13.65625 C99.04041662 22.6178164 92.49653102 30.31053865 85.71484375 35.875 C79.85174984 40.18637175 73.7516355 43.32517173 67 46 C66.11828125 46.39445313 65.2365625 46.78890625 64.328125 47.1953125 C46.92979218 53.91953302 25.3124816 51.23396712 8.34375 44.5625 C-3.12791425 39.37531269 -13.21676807 31.36704208 -19 20 C-20.52199166 14.84325193 -20.85843268 10.59423213 -18.25 5.75 C-13.03594517 -0.62273369 -8.03464515 -1.4306852 0 0 Z " fill="#C3AEFA" transform="translate(466,558)"/>
<path d="M0 0 C0.99 0.495 0.99 0.495 2 1 C2.57836914 2.91430664 2.57836914 2.91430664 3.03515625 5.41015625 C3.28942383 6.77237305 3.28942383 6.77237305 3.54882812 8.16210938 C3.71833984 9.11923828 3.88785156 10.07636719 4.0625 11.0625 C4.23587891 11.99255859 4.40925781 12.92261719 4.58789062 13.88085938 C9.98104781 43.28493092 7.08248129 71.97379244 -3 100 C-3.22913086 100.65371582 -3.45826172 101.30743164 -3.69433594 101.98095703 C-10.72765725 121.82023129 -22.35669142 140.4272254 -35.8828125 156.48046875 C-39.0354502 160.23222394 -42.01581646 164.11384459 -45 168 C-52.94792981 164.76126514 -62.11863984 154.0638113 -67 147 C-67 142.8493471 -64.73605453 141.25661413 -62 138.4375 C-57.03153107 133.16839376 -52.4331733 127.73152079 -48 122 C-47.19691406 120.98035156 -46.39382813 119.96070313 -45.56640625 118.91015625 C-37.61990362 108.7729304 -30.36374276 98.20938785 -24 87 C-23.66887207 86.41686035 -23.33774414 85.8337207 -22.99658203 85.23291016 C-10.11881085 62.33073463 -1.32115425 38.86476627 -0.4375 12.5 C-0.37272461 10.69402344 -0.37272461 10.69402344 -0.30664062 8.8515625 C-0.20126832 5.90113807 -0.09914097 2.95063929 0 0 Z " fill="#A947FA" transform="translate(695,450)"/>
<path d="M0 0 C-9.61769203 3.20589734 -19.94034885 3.74254361 -30 5 C-30 25.46 -30 45.92 -30 67 C-29.34 67.33 -28.68 67.66 -28 68 C-28.99 68 -29.98 68 -31 68 C-31 46.22 -31 24.44 -31 2 C-23.41 1.34 -15.82 0.68 -8 0 C-4.29847322 -0.92538169 -3.36541838 -1.08174162 0 0 Z " fill="#492082" transform="translate(538,714)"/>
<path d="M0 0 C0.20638953 24.98265839 0.20638953 24.98265839 -1 35 C-1.33 35 -1.66 35 -2 35 C-2 24.77 -2 14.54 -2 4 C-4.31 5.32 -6.62 6.64 -9 8 C-9.99 8 -10.98 8 -12 8 C-12 8.66 -12 9.32 -12 10 C-13.95330868 11.03041513 -15.91281528 12.0490893 -17.875 13.0625 C-18.96554687 13.63097656 -20.05609375 14.19945312 -21.1796875 14.78515625 C-22.11039063 15.18605469 -23.04109375 15.58695312 -24 16 C-24.66 15.67 -25.32 15.34 -26 15 C-25.34926514 14.61666504 -24.69853027 14.23333008 -24.02807617 13.83837891 C-21.0806961 12.10146886 -18.13409012 10.3632498 -15.1875 8.625 C-14.16333984 8.02171875 -13.13917969 7.4184375 -12.08398438 6.796875 C-11.10107422 6.21679688 -10.11816406 5.63671875 -9.10546875 5.0390625 C-8.19949951 4.50490723 -7.29353027 3.97075195 -6.36010742 3.42041016 C-0.6768649 0 -0.6768649 0 0 0 Z " fill="#9149D6" transform="translate(767,493)"/>
<path d="M0 0 C0.66 0.33 1.32 0.66 2 1 C1.88856155 5.10464976 1.75831866 9.20850725 1.625 13.3125 C1.5940625 14.46041016 1.563125 15.60832031 1.53125 16.79101562 C1.17145987 27.37484205 -0.31734044 37.05681918 -4 47 C-5.23853632 43.38905609 -4.79209453 40.59428048 -4.125 36.875 C-3.94195313 35.82054687 -3.75890625 34.76609375 -3.5703125 33.6796875 C-3 31 -3 31 -2 29 C-1.85775447 26.99243171 -1.77375694 24.98059952 -1.71875 22.96875 C-1.68136719 21.76605469 -1.64398437 20.56335938 -1.60546875 19.32421875 C-1.57066406 18.06222656 -1.53585937 16.80023438 -1.5 15.5 C-1.43133604 13.01029575 -1.35862836 10.52069865 -1.28125 8.03125 C-1.25095703 6.92330078 -1.22066406 5.81535156 -1.18945312 4.67382812 C-1 2 -1 2 0 0 Z " fill="#3A2A70" transform="translate(694,449)"/>
<path d="M0 0 C0 0.99 0 1.98 0 3 C-0.66 3 -1.32 3 -2 3 C-2.226875 3.556875 -2.45375 4.11375 -2.6875 4.6875 C-4.95600449 8.68438886 -7.61899946 11.53966649 -12 13 C-13.68933922 14.6436814 -15.35259924 16.3142876 -17 18 C-18.93959345 19.84676656 -20.83215048 21.39767645 -23 23 C-23.99 22.67 -24.98 22.34 -26 22 C-25.10539063 21.24976563 -24.21078125 20.49953125 -23.2890625 19.7265625 C-16.50595986 13.9968535 -10.01058168 8.2098178 -3.890625 1.765625 C-2 0 -2 0 0 0 Z " fill="#502285" transform="translate(628,596)"/>
<path d="M0 0 C0.66 0.33 1.32 0.66 2 1 C-0.71996986 3.39997341 -2.67516176 4.90445934 -6.1875 5.9375 C-9.09879457 6.69228558 -9.09879457 6.69228558 -10.07421875 8.921875 C-11.39800805 13.3233348 -11.9953166 17.76657136 -12.625 22.3125 C-12.7590625 23.24384766 -12.893125 24.17519531 -13.03125 25.13476562 C-13.35973711 27.42244371 -13.68246817 29.71078004 -14 32 C-15.485 32.495 -15.485 32.495 -17 33 C-16.35585 28.17506875 -15.50655533 23.45353948 -14.5 18.6875 C-13.28507522 12.81182827 -12.40859231 6.98799068 -12 1 C-11.34 2.32 -10.68 3.64 -10 5 C-9.30132813 4.62746094 -8.60265625 4.25492188 -7.8828125 3.87109375 C-6.51769531 3.16146484 -6.51769531 3.16146484 -5.125 2.4375 C-4.22007812 1.96183594 -3.31515625 1.48617188 -2.3828125 0.99609375 C-1.59648438 0.66738281 -0.81015625 0.33867187 0 0 Z " fill="#9256CF" transform="translate(739,509)"/>
<path d="M0 0 C0.33 0 0.66 0 1 0 C1.31148641 4.75007237 1.61437392 9.50058728 1.90942383 14.25170898 C2.0109214 15.86676683 2.11473709 17.48168077 2.22094727 19.09643555 C2.37350333 21.42202031 2.51762219 23.74800085 2.66015625 26.07421875 C2.70906509 26.79212082 2.75797394 27.51002289 2.80836487 28.24967957 C3.03044923 32.01591478 2.95154234 35.34046176 2 39 C1.34 39 0.68 39 0 39 C0 26.13 0 13.26 0 0 Z " fill="#1E104C" transform="translate(284,476)"/>
<path d="M0 0 C1.32 0.33 2.64 0.66 4 1 C0.5257834 3.09167093 -2.95523239 5.17176489 -6.4375 7.25 C-7.41138672 7.83652344 -8.38527344 8.42304688 -9.38867188 9.02734375 C-15.11537149 12.43654954 -20.8267505 15.48014882 -27 18 C-26 15 -26 15 -22.5 13.125 C-21.78585937 12.79242188 -21.07171875 12.45984375 -20.3359375 12.1171875 C-17.08732862 10.56350499 -13.99861036 8.7552938 -10.8828125 6.953125 C-9 6 -9 6 -7 6 C-7 5.34 -7 4.68 -7 4 C-4.35261084 2.5393715 -3.10551666 2 0 2 C0 1.34 0 0.68 0 0 Z " fill="#EBD1FE" transform="translate(755,497)"/>
<path d="M0 0 C0.33 0 0.66 0 1 0 C1.08767743 4.49987562 1.14062009 8.999529 1.1875 13.5 C1.21263672 14.7684375 1.23777344 16.036875 1.26367188 17.34375 C1.31804804 24.30389891 1.03406252 29.69297241 -2 36 C-3.33105859 32.17267499 -2.85252496 28.55496814 -2.44140625 24.609375 C-2.37340317 23.90476135 -2.30540009 23.20014771 -2.2353363 22.47418213 C-2.01746798 20.23210492 -1.79011985 17.9911061 -1.5625 15.75 C-1.41278444 14.22662399 -1.26368882 12.70318692 -1.11523438 11.1796875 C-0.75066943 7.45237923 -0.37760185 3.72600919 0 0 Z " fill="#24094F" transform="translate(766,516)"/>
<path d="M0 0 C0 0.66 0 1.32 0 2 C-1.39689365 2.95397615 -2.80068645 3.89914479 -4.234375 4.796875 C-6.09373827 6.06387475 -7.66205974 7.47295714 -9.3125 9 C-13.044671 12.25942934 -17.18799183 14.71027508 -22 16 C-24.26953125 15.59765625 -24.26953125 15.59765625 -26 15 C-25.35675781 14.67128906 -24.71351563 14.34257813 -24.05078125 14.00390625 C-17.78004072 10.70304569 -11.97135826 7.04631005 -6.24145508 2.89672852 C-2.19969604 0 -2.19969604 0 0 0 Z " fill="#502187" transform="translate(592,627)"/>
<path d="M0 0 C15.84 0.495 15.84 0.495 32 1 C32 1.33 32 1.66 32 2 C26.9982974 2.99874253 22.20178634 3.18326228 17.125 3.1875 C15.97837891 3.20586914 15.97837891 3.20586914 14.80859375 3.22460938 C9.548998 3.23800393 5.05553641 2.45677758 0 1 C0 0.67 0 0.34 0 0 Z " fill="#140239" transform="translate(488,659)"/>
<path d="M0 0 C0 0.99 0 1.98 0 3 C-2.35724986 5.35724986 -4.69183423 6.04485471 -7.7890625 7.140625 C-9.97232952 7.98924469 -11.94548852 9.00435738 -14 10.125 C-18.00629224 12.20763605 -21.5162013 12.67972866 -26 13 C-23.46560081 11.31040054 -21.20411606 10.12524857 -18.4375 8.90625 C-17.55835938 8.51566406 -16.67921875 8.12507812 -15.7734375 7.72265625 C-13.92447917 6.90755208 -12.07552083 6.09244792 -10.2265625 5.27734375 C-9.34742188 4.88675781 -8.46828125 4.49617187 -7.5625 4.09375 C-6.75941406 3.73990234 -5.95632813 3.38605469 -5.12890625 3.02148438 C-2.78566476 1.95834277 -2.78566476 1.95834277 0 0 Z " fill="#491A7B" transform="translate(595,691)"/>
<path d="M0 0 C-19.66486921 8.54847407 -19.66486921 8.54847407 -31 8 C-31 7.67 -31 7.34 -31 7 C-29.62328125 6.72736328 -29.62328125 6.72736328 -28.21875 6.44921875 C-20.46378184 4.86075363 -13.46008472 3.02731124 -6.25 -0.25 C-3.65569687 -1.11476771 -2.56285802 -0.75378177 0 0 Z " fill="#45197C" transform="translate(569,705)"/>
<path d="M0 0 C1.88029228 4.70073069 -0.15958934 8.9384212 -1.95703125 13.34765625 C-3.44946247 16.78527872 -4.914526 19.87178899 -7 23 C-7.66 23 -8.32 23 -9 23 C-7.67686729 18.88971274 -6.18275455 14.91352066 -4.5 10.9375 C-2.96619466 7.30406479 -1.45315116 3.66651567 0 0 Z " fill="#1E074A" transform="translate(751,592)"/>
<path d="M0 0 C0.66 0 1.32 0 2 0 C0.26460179 5.92429044 -2.44551609 11.3358988 -5.125 16.875 C-5.59292969 17.84953125 -6.06085938 18.8240625 -6.54296875 19.828125 C-7.69214845 22.22029499 -8.84457243 24.61084316 -10 27 C-10.625 25.1875 -10.625 25.1875 -11 23 C-10.01 21.515 -10.01 21.515 -9 20 C-8.61500109 18.34450469 -8.27206865 16.6777567 -8 15 C-7.34 15 -6.68 15 -6 15 C-5.67 13.02 -5.34 11.04 -5 9 C-4.34 9 -3.68 9 -3 9 C-2.67 7.02 -2.34 5.04 -2 3 C-1.34 3 -0.68 3 0 3 C0 2.01 0 1.02 0 0 Z " fill="#0D0735" transform="translate(275,379)"/>
<path d="M0 0 C0.33 0.99 0.66 1.98 1 3 C0.31292969 3.73605469 -0.37414062 4.47210938 -1.08203125 5.23046875 C-1.99241501 6.21593571 -2.90255854 7.20162462 -3.8125 8.1875 C-4.70582031 9.15042969 -5.59914063 10.11335938 -6.51953125 11.10546875 C-9.03685235 13.87500704 -9.03685235 13.87500704 -10.69921875 16.86328125 C-11.34310547 17.92095703 -11.34310547 17.92095703 -12 19 C-12.66 19 -13.32 19 -14 19 C-14 19.66 -14 20.32 -14 21 C-14.66 20.67 -15.32 20.34 -16 20 C-11.04410079 12.9483881 -5.86575915 6.31817143 0 0 Z " fill="#12083A" transform="translate(338,356)"/>
<path d="M0 0 C0.66 0.99 1.32 1.98 2 3 C-2.47307108 7.04165813 -6.88276824 10.80173015 -12 14 C-12.66 13.67 -13.32 13.34 -14 13 C-4.58997722 3.40546697 -4.58997722 3.40546697 0 0 Z " fill="#977AE0" transform="translate(335,309)"/>
<path d="M0 0 C0.33 0 0.66 0 1 0 C0.67 3.3 0.34 6.6 0 10 C-0.66 10 -1.32 10 -2 10 C-1.979375 11.2375 -1.95875 12.475 -1.9375 13.75 C-1.96939231 19.76701668 -1.96939231 19.76701668 -3 22 C-4.31268967 22.70644749 -5.64570239 23.3770231 -7 24 C-4.86662595 15.93519961 -2.49320448 7.96053614 0 0 Z " fill="#23094F" transform="translate(759,566)"/>
<path d="M0 0 C2 1 2 1 2.66796875 2.92578125 C2.83941406 3.71339844 3.01085937 4.50101562 3.1875 5.3125 C3.36667969 6.09238281 3.54585937 6.87226563 3.73046875 7.67578125 C4.1941305 11.67402388 2.8639983 14.5205365 1 18 C0.67 18 0.34 18 0 18 C0 12.06 0 6.12 0 0 Z " fill="#8951C8" transform="translate(695,450)"/>
<path d="M0 0 C-1.57630677 3.87321093 -4.07747669 6.24735163 -7.0625 9.125 C-10.46453483 12.24105765 -10.46453483 12.24105765 -13 16 C-13.66 15.67 -14.32 15.34 -15 15 C-5.15533981 0 -5.15533981 0 0 0 Z " fill="#E5ECEE" transform="translate(390,416)"/>
<path d="M0 0 C0.74362793 0.0942627 1.48725586 0.18852539 2.25341797 0.28564453 C3.05908203 0.38232422 3.86474609 0.47900391 4.69482422 0.57861328 C5.95746094 0.74683594 5.95746094 0.74683594 7.24560547 0.91845703 C8.51984375 1.07507813 8.51984375 1.07507813 9.81982422 1.23486328 C11.92131857 1.49459854 14.02114419 1.7677702 16.12060547 2.04345703 C12.43562752 4.05172265 9.78037042 4.31267098 5.55810547 4.29345703 C4.42244141 4.29861328 3.28677734 4.30376953 2.11669922 4.30908203 C-0.87939453 4.04345703 -0.87939453 4.04345703 -3.87939453 2.04345703 C-1.87939453 0.04345703 -1.87939453 0.04345703 0 0 Z " fill="#29224F" transform="translate(499.87939453125,575.95654296875)"/>
<path d="M0 0 C0.33 0.66 0.66 1.32 1 2 C-2.01708317 8.76410581 -6.16081447 13.562219 -12 18 C-12.66 17.67 -13.32 17.34 -14 17 C-13.40832031 16.35933594 -12.81664062 15.71867188 -12.20703125 15.05859375 C-7.79006952 10.22371395 -3.66053443 5.43176077 0 0 Z " fill="#140335" transform="translate(712,663)"/>
<path d="M0 0 C0.33 0.66 0.66 1.32 1 2 C0.34 2 -0.32 2 -1 2 C-1.226875 2.5775 -1.45375 3.155 -1.6875 3.75 C-3.96292383 7.65072656 -7.76631488 10.44764879 -12 12 C-12.99 11.67 -13.98 11.34 -15 11 C-10.05 7.37 -5.1 3.74 0 0 Z " fill="#491F80" transform="translate(637,664)"/>
<path d="M0 0 C0.99 0.33 1.98 0.66 3 1 C1.95012419 3.23590266 0.88590013 5.46291713 -0.1875 7.6875 C-0.47947266 8.31333984 -0.77144531 8.93917969 -1.07226562 9.58398438 C-3.16225759 13.87633346 -5.45418513 16.79713095 -9 20 C-8.67 18.35 -8.34 16.7 -8 15 C-7.34 15 -6.68 15 -6 15 C-5.71125 14.113125 -5.4225 13.22625 -5.125 12.3125 C-4.16851252 9.49617576 -3.13201054 6.74916844 -2 4 C-1.34 4 -0.68 4 0 4 C0 2.68 0 1.36 0 0 Z " fill="#3C2A74" transform="translate(673,528)"/>
<path d="M0 0 C0.66 0.33 1.32 0.66 2 1 C0.88110128 3.79425509 -0.24477929 6.58532824 -1.375 9.375 C-1.69210937 10.1690625 -2.00921875 10.963125 -2.3359375 11.78125 C-2.6453125 12.54179688 -2.9546875 13.30234375 -3.2734375 14.0859375 C-3.55622559 14.7876709 -3.83901367 15.4894043 -4.13037109 16.21240234 C-5 18 -5 18 -7 20 C-6.67 17.36 -6.34 14.72 -6 12 C-5.34 12 -4.68 12 -4 12 C-3.87882813 11.21753906 -3.75765625 10.43507813 -3.6328125 9.62890625 C-3.46523438 8.61699219 -3.29765625 7.60507812 -3.125 6.5625 C-2.96257813 5.55316406 -2.80015625 4.54382813 -2.6328125 3.50390625 C-2.42398438 2.67761719 -2.21515625 1.85132813 -2 1 C-1.34 0.67 -0.68 0.34 0 0 Z " fill="#3B2973" transform="translate(685,504)"/>
<path d="M0 0 C0.33 0 0.66 0 1 0 C1 5.61 1 11.22 1 17 C0.34 16.67 -0.32 16.34 -1 16 C-1.66 16.99 -2.32 17.98 -3 19 C-2.69127671 16.39533457 -2.37818277 13.79132309 -2.0625 11.1875 C-1.97548828 10.44951172 -1.88847656 9.71152344 -1.79882812 8.95117188 C-1.41783454 5.83266879 -0.99630626 2.98891878 0 0 Z " fill="#4C217E" transform="translate(315,453)"/>
<path d="M0 0 C0 0.66 0 1.32 0 2 C-3.17787541 3.0592918 -5.42588943 3.11458939 -8.76171875 3.09765625 C-9.87998047 3.09443359 -10.99824219 3.09121094 -12.15039062 3.08789062 C-13.31763672 3.07951172 -14.48488281 3.07113281 -15.6875 3.0625 C-16.86634766 3.05798828 -18.04519531 3.05347656 -19.25976562 3.04882812 C-22.17322789 3.03703273 -25.08658863 3.0205727 -28 3 C-28 2.67 -28 2.34 -28 2 C-26.77023437 1.93941406 -25.54046875 1.87882813 -24.2734375 1.81640625 C-22.64061573 1.73194995 -21.00780373 1.64730453 -19.375 1.5625 C-18.56675781 1.52318359 -17.75851562 1.48386719 -16.92578125 1.44335938 C-11.24455519 1.14313198 -5.66861886 0 0 0 Z " fill="#4F1C89" transform="translate(524,660)"/>
<path d="M0 0 C1.03213723 2.68103939 1.06063565 3.82394385 0.109375 6.5859375 C-0.33921875 7.50632812 -0.7878125 8.42671875 -1.25 9.375 C-1.71277344 10.33792969 -2.17554688 11.30085937 -2.65234375 12.29296875 C-3.09707031 13.18628906 -3.54179688 14.07960938 -4 15 C-4.33128906 15.67675781 -4.66257812 16.35351562 -5.00390625 17.05078125 C-5.65722805 18.37320557 -6.32621147 19.6878855 -7 21 C-7.66 21 -8.32 21 -9 21 C-7.50640515 16.15713185 -5.54966433 11.68649104 -3.375 7.125 C-2.88773438 6.09246094 -2.88773438 6.09246094 -2.390625 5.0390625 C-1.59676528 3.35794781 -0.79880442 1.67877079 0 0 Z " fill="#A95EEE" transform="translate(684,511)"/>
<path d="M0 0 C0.33 0.99 0.66 1.98 1 3 C0.46890625 3.45890625 -0.0621875 3.9178125 -0.609375 4.390625 C-5.06137632 8.24331154 -5.06137632 8.24331154 -9.25 12.375 C-11.20487918 14.19024496 -12.44150656 14.46081337 -15 15 C-10.72226048 9.75976909 -6.16137595 5.36068517 -1 1 C-0.67 0.67 -0.34 0.34 0 0 Z " fill="#4C1E83" transform="translate(655,648)"/>
<path d="M0 0 C0.33 0.66 0.66 1.32 1 2 C0.401875 2.886875 -0.19625 3.77375 -0.8125 4.6875 C-2.12192557 6.67034443 -3.38864099 8.68400814 -4.5625 10.75 C-6 13 -6 13 -9 15 C-9.99 14.67 -10.98 14.34 -12 14 C-11.30132813 13.24074219 -10.60265625 12.48148438 -9.8828125 11.69921875 C-8.96343578 10.69540947 -8.04417079 9.69149785 -7.125 8.6875 C-6.66480469 8.18798828 -6.20460938 7.68847656 -5.73046875 7.17382812 C-3.61393392 4.85790957 -1.74473617 2.61710426 0 0 Z " fill="#9A55E4" transform="translate(645,574)"/>
<path d="M0 0 C4.52615993 3.67832017 8.39424999 7.41086363 12 12 C10.68 12.99 9.36 13.98 8 15 C7.34 14.01 6.68 13.02 6 12 C6.66 11.01 7.32 10.02 8 9 C7.34 9 6.68 9 6 9 C6 8.34 6 7.68 6 7 C5.34 7 4.68 7 4 7 C0 2.52941176 0 2.52941176 0 0 Z " fill="#9E7CE8" transform="translate(366,309)"/>
<path d="M0 0 C0.66 0.99 1.32 1.98 2 3 C1.34 3 0.68 3 0 3 C0.061875 4.1446875 0.061875 4.1446875 0.125 5.3125 C0 8 0 8 -2 11 C-2.66 11 -3.32 11 -4 11 C-4.144375 11.78375 -4.28875 12.5675 -4.4375 13.375 C-5 16 -5 16 -6 18 C-6.66 18 -7.32 18 -8 18 C-6.65150163 13.64029169 -4.95092154 9.68658562 -2.875 5.625 C-2.33617187 4.56539062 -1.79734375 3.50578125 -1.2421875 2.4140625 C-0.83226562 1.61742187 -0.42234375 0.82078125 0 0 Z " fill="#190544" transform="translate(741,615)"/>
<path d="M0 0 C2.00965505 6.55782174 0.46752853 13.74892772 -2 20 C-2.66 20 -3.32 20 -4 20 C-3.34034961 13.13963599 -1.7637236 6.65556077 0 0 Z " fill="#9678D6" transform="translate(253,438)"/>
<path d="M0 0 C0.33 0 0.66 0 1 0 C1.02687279 1.81242052 1.04633715 3.62495233 1.0625 5.4375 C1.07410156 6.44683594 1.08570313 7.45617187 1.09765625 8.49609375 C1 11 1 11 0 12 C-0.36760731 14.32817964 -0.70241581 16.6618385 -1 19 C-1.66 19 -2.32 19 -3 19 C-2.48446121 12.50149789 -1.53332291 6.33773468 0 0 Z " fill="#1A0444" transform="translate(700,516)"/>
<path d="M0 0 C0 0.99 0 1.98 0 3 C-2.484375 4.859375 -2.484375 4.859375 -5.75 6.75 C-6.81734375 7.38421875 -7.8846875 8.0184375 -8.984375 8.671875 C-12 10 -12 10 -16 9 C-10.72 6.03 -5.44 3.06 0 0 Z " fill="#4C1E7E" transform="translate(613,681)"/>
<path d="M0 0 C1.4540625 0.0309375 1.4540625 0.0309375 2.9375 0.0625 C-3.01322817 4.02965211 -9.00418865 5.43229363 -16.0625 6.0625 C-15.7325 5.4025 -15.4025 4.7425 -15.0625 4.0625 C-12.59375 3.24609375 -12.59375 3.24609375 -9.5625 2.5 C-6.10593527 1.64031315 -3.38885635 0.06916033 0 0 Z " fill="#120337" transform="translate(560.0625,704.9375)"/>
<path d="M0 0 C0.66 0.33 1.32 0.66 2 1 C-0.31 3.97 -2.62 6.94 -5 10 C-6.32 9.34 -7.64 8.68 -9 8 C-7.6875 6.5 -7.6875 6.5 -6 5 C-5.01 5 -4.02 5 -3 5 C-3 4.01 -3 3.02 -3 2 C-2.01 1.34 -1.02 0.68 0 0 Z " fill="#9948E5" transform="translate(655,608)"/>
<path d="M0 0 C0.67578125 1.78125 0.67578125 1.78125 1 4 C-0.14453125 5.78125 -0.14453125 5.78125 -1.8125 7.5 C-4.08752493 9.87769826 -5.64649686 11.98928082 -7 15 C-7.66 15 -8.32 15 -9 15 C-7.61219205 11.10993227 -5.7847773 8.03441292 -3.375 4.6875 C-2.74335937 3.80449219 -2.11171875 2.92148437 -1.4609375 2.01171875 C-0.97882812 1.34785156 -0.49671875 0.68398438 0 0 Z " fill="#8C3BD7" transform="translate(699,595)"/>
<path d="M0 0 C0.33 0.66 0.66 1.32 1 2 C0.401875 2.721875 -0.19625 3.44375 -0.8125 4.1875 C-3.03616504 6.89077575 -3.03616504 6.89077575 -4.5 9.75 C-6 12 -6 12 -8.1875 12.8125 C-8.785625 12.874375 -9.38375 12.93625 -10 13 C-7.02480663 8.30834891 -3.68606635 4.15296809 0 0 Z " fill="#947CD8" transform="translate(312,331)"/>
<path d="M0 0 C0.66 0.33 1.32 0.66 2 1 C1.27275406 6.52706913 -0.33445973 11.69960141 -2 17 C-3.73542222 11.14131896 -2.55049615 5.44105846 0 0 Z " fill="#A65AEC" transform="translate(697,463)"/>
<path d="M0 0 C0.33 1.32 0.66 2.64 1 4 C0.34 4 -0.32 4 -1 4 C-1.103125 4.928125 -1.20625 5.85625 -1.3125 6.8125 C-2.00531495 10.02464205 -2.3879169 11.11930017 -5 13 C-5.66 13 -6.32 13 -7 13 C-5.35821735 8.22390502 -2.73453298 4.20617096 0 0 Z " fill="#17043D" transform="translate(730,636)"/>
<path d="M0 0 C1 3 1 3 0.22265625 4.82421875 C-0.8515625 6.54947917 -1.92578125 8.27473958 -3 10 C-3.66 10 -4.32 10 -5 10 C-5.33 11.65 -5.66 13.3 -6 15 C-6.66 14.67 -7.32 14.34 -8 14 C-6.6744419 10.37723685 -5.05653045 7.36494652 -2.875 4.1875 C-2.33617187 3.39730469 -1.79734375 2.60710937 -1.2421875 1.79296875 C-0.83226562 1.20128906 -0.42234375 0.60960937 0 0 Z " fill="#9480D2" transform="translate(289,360)"/>
<path d="M0 0 C0 0.99 0 1.98 0 3 C-1.98 3.99 -1.98 3.99 -4 5 C-4 5.66 -4 6.32 -4 7 C-5.96147874 8.38938077 -7.96166576 9.7260411 -10 11 C-10.66 10.67 -11.32 10.34 -12 10 C-10.37744772 8.51814875 -8.75188112 7.03959744 -7.125 5.5625 C-6.22007812 4.73878906 -5.31515625 3.91507812 -4.3828125 3.06640625 C-2 1 -2 1 0 0 Z " fill="#140B35" transform="translate(362,333)"/>
<path d="M0 0 C1.65 1.65 3.3 3.3 5 5 C3 5 1 5 -1 5 C-1.99 5.66 -2.98 6.32 -4 7 C-4.66 6.34 -5.32 5.68 -6 5 C-4.02 3.35 -2.04 1.7 0 0 Z " fill="#9878DE" transform="translate(353,294)"/>
<path d="M0 0 C0.33 0 0.66 0 1 0 C1 2.64 1 5.28 1 8 C0.34 8 -0.32 8 -1 8 C-1 9.65 -1 11.3 -1 13 C-1.99 13.33 -2.98 13.66 -4 14 C-3.79503906 13.32453125 -3.59007812 12.6490625 -3.37890625 11.953125 C-3.10949219 11.06109375 -2.84007812 10.1690625 -2.5625 9.25 C-2.16224609 7.92742188 -2.16224609 7.92742188 -1.75390625 6.578125 C-1.11531506 4.39434165 -0.53224167 2.21164502 0 0 Z " fill="#20084E" transform="translate(694,541)"/>
<path d="M0 0 C0.33 0 0.66 0 1 0 C1.38479542 2.61660888 1.42926825 4.36387423 -0.078125 6.59765625 C-1.35531268 8.09137862 -2.67638826 9.54725541 -4 11 C-4.33 11.66 -4.66 12.32 -5 13 C-5.66 13 -6.32 13 -7 13 C-5.37621488 8.27626146 -2.89006982 4.05818166 0 0 Z " fill="#A65AE9" transform="translate(670,539)"/>
<path d="M0 0 C0.33 0.66 0.66 1.32 1 2 C0.67 2.66 0.34 3.32 0 4 C-0.99 4 -1.98 4 -3 4 C-3 4.99 -3 5.98 -3 7 C-5.31 7.66 -7.62 8.32 -10 9 C-6.83047153 5.73991357 -3.60062011 2.77762123 0 0 Z " fill="#8E75D7" transform="translate(346,300)"/>
<path d="M0 0 C0 3.58912412 -0.66436554 4.10857029 -3 6.6875 C-3.556875 7.31011719 -4.11375 7.93273437 -4.6875 8.57421875 C-5.120625 9.04472656 -5.55375 9.51523437 -6 10 C-6.99 9.67 -7.98 9.34 -9 9 C-6.03 6.03 -3.06 3.06 0 0 Z " fill="#4A2283" transform="translate(665,638)"/>
<path d="M0 0 C0 3 0 3 -2.25 5.75 C-3.1575 6.4925 -4.065 7.235 -5 8 C-6.32 7.67 -7.64 7.34 -9 7 C-6.03 4.69 -3.06 2.38 0 0 Z " fill="#512186" transform="translate(601,619)"/>
<path d="M0 0 C0.33 0 0.66 0 1 0 C1.30017023 4.16486198 0.45324946 6.65015727 -1.5 10.3125 C-1.9640625 11.19550781 -2.428125 12.07851563 -2.90625 12.98828125 C-3.2671875 13.65214844 -3.628125 14.31601562 -4 15 C-4.625 13.1875 -4.625 13.1875 -5 11 C-4.34 10.01 -3.68 9.02 -3 8 C-2.61500109 6.34450469 -2.27206865 4.6777567 -2 3 C-1.34 3 -0.68 3 0 3 C0 2.01 0 1.02 0 0 Z " fill="#140C3B" transform="translate(269,391)"/>
<path d="M0 0 C1.53166168 4.08443115 0.63081652 7.79455657 0 12 C-0.99 12.33 -1.98 12.66 -3 13 C-2.45144652 8.428721 -1.58255197 4.32564205 0 0 Z " fill="#9144D6" transform="translate(725,529)"/>
<path d="M0 0 C-0.33 0.99 -0.66 1.98 -1 3 C-1.99 3 -2.98 3 -4 3 C-4 3.66 -4 4.32 -4 5 C-5.32 5.33 -6.64 5.66 -8 6 C-8 6.66 -8 7.32 -8 8 C-9.32 7.67 -10.64 7.34 -12 7 C-10.3790787 5.82767315 -8.75313167 4.6622923 -7.125 3.5 C-6.22007812 2.8503125 -5.31515625 2.200625 -4.3828125 1.53125 C-2 0 -2 0 0 0 Z " fill="#0C012D" transform="translate(612,651)"/>
<path d="M0 0 C2.9719385 1.12451727 5.33440687 2.22293791 8 4 C8.6875 6.625 8.6875 6.625 9 9 C7.87105124 8.06725891 6.74699124 7.12859878 5.625 6.1875 C4.99851562 5.66542969 4.37203125 5.14335938 3.7265625 4.60546875 C2 3 2 3 0 0 Z " fill="#56228E" transform="translate(371,625)"/>
<path d="M0 0 C0.66 0.33 1.32 0.66 2 1 C-1.88309282 4.64775386 -4.71201818 5.58525633 -10 6 C-6.87511433 3.47605388 -3.68685613 1.60298093 0 0 Z " fill="#9F52E5" transform="translate(739,509)"/>
<path d="M0 0 C0.99 0 1.98 0 3 0 C2.38722388 2.96175123 1.74627478 4.38058783 0 7 C-0.66 7 -1.32 7 -2 7 C-1.125 1.125 -1.125 1.125 0 0 Z " fill="#A28AEA" transform="translate(292,356)"/>
<path d="M0 0 C0 0.66 0 1.32 0 2 C-4.17737474 3.59138085 -7.53160785 4.21278058 -12 4 C-8.14070855 1.42713903 -4.66785662 0 0 0 Z " fill="#0D022E" transform="translate(576,761)"/>
<path d="M0 0 C0.66 0.33 1.32 0.66 2 1 C-0.31 4.63 -2.62 8.26 -5 12 C-5.33 11.01 -5.66 10.02 -6 9 C-4.75 7.125 -4.75 7.125 -3 5 C-1.98343919 3.34338239 -0.97934924 1.67888441 0 0 Z " fill="#924ADD" transform="translate(675,580)"/>
<path d="M0 0 C1.18414294 3.55242882 0.69535532 4.69830562 -0.4375 8.1875 C-0.72496094 9.08855469 -1.01242187 9.98960937 -1.30859375 10.91796875 C-1.53675781 11.60503906 -1.76492188 12.29210937 -2 13 C-2.33 13 -2.66 13 -3 13 C-3.27429625 7.60550707 -3.36055646 4.48074195 0 0 Z " fill="#9C41E9" transform="translate(756,572)"/>
<path d="M0 0 C0.33 0.66 0.66 1.32 1 2 C-1.31537955 5.72114571 -3.28579473 8.61229661 -7 11 C-5.5140084 6.40693504 -3.14985318 3.56430755 0 0 Z " fill="#E4E9EE" transform="translate(563,423)"/>
<path d="M0 0 C2.475 0.495 2.475 0.495 5 1 C5 1.66 5 2.32 5 3 C5.66 3 6.32 3 7 3 C7 3.66 7 4.32 7 5 C7.99 5 8.98 5 10 5 C10 5.66 10 6.32 10 7 C5.56541027 5.6062718 3.12621626 3.39417765 0 0 Z " fill="#4E2082" transform="translate(398,648)"/>
<path d="M0 0 C0.66 0 1.32 0 2 0 C0.4169423 4.2742558 -2.50568404 6.26531794 -6 9 C-6 8.01 -6 7.02 -6 6 C-5.34 6 -4.68 6 -4 6 C-3.34 4.68 -2.68 3.36 -2 2 C-1.34 2 -0.68 2 0 2 C0 1.34 0 0.68 0 0 Z " fill="#1A0645" transform="translate(671,629)"/>
<path d="M0 0 C0.66 0.33 1.32 0.66 2 1 C0.35 4.3 -1.3 7.6 -3 11 C-4 8 -4 8 -3.22265625 5.95703125 C-2.83980469 5.24933594 -2.45695313 4.54164063 -2.0625 3.8125 C-1.68222656 3.09707031 -1.30195312 2.38164063 -0.91015625 1.64453125 C-0.60980469 1.10183594 -0.30945313 0.55914063 0 0 Z " fill="#964AE0" transform="translate(686,559)"/>
<path d="M0 0 C0.763125 0.309375 1.52625 0.61875 2.3125 0.9375 C4.18789677 1.67893593 6.08684652 2.36228217 8 3 C9.1875 5.5625 9.1875 5.5625 10 8 C6.25718301 5.61820737 3.02272532 3.25524265 0 0 Z " fill="#14033A" transform="translate(404,614)"/>
<path d="M0 0 C0.33 0 0.66 0 1 0 C1.25532751 3.06393013 1.21861333 4.63233212 -0.375 7.3125 C-1.179375 8.1478125 -1.179375 8.1478125 -2 9 C-2.66 9 -3.32 9 -4 9 C-2.94124926 5.59687262 -1.99097846 2.98646769 0 0 Z " fill="#16053C" transform="translate(746,606)"/>
<path d="M0 0 C0.66 0.33 1.32 0.66 2 1 C0.50260417 2.20442708 -0.99479167 3.40885417 -2.4921875 4.61328125 C-4.25292107 6.12270545 -4.25292107 6.12270545 -6 9 C-6.66 9 -7.32 9 -8 9 C-6.4169423 4.7257442 -3.49431596 2.73468206 0 0 Z " fill="#C1CFD7" transform="translate(388,416)"/>
<path d="M0 0 C4.05606165 0.46800711 7.46588679 0.87953208 11 3 C11 3.66 11 4.32 11 5 C9.53932801 4.54917531 8.08151968 4.08906463 6.625 3.625 C5.81289063 3.36976563 5.00078125 3.11453125 4.1640625 2.8515625 C2 2 2 2 0 0 Z " fill="#0F0135" transform="translate(453,646)"/>
<path d="M0 0 C0.66 0.33 1.32 0.66 2 1 C-0.31 3.31 -2.62 5.62 -5 8 C-5.99 7.67 -6.98 7.34 -8 7 C-5.36 4.69 -2.72 2.38 0 0 Z " fill="#0B012A" transform="translate(630,635)"/>
<path d="M0 0 C1.32 0.33 2.64 0.66 4 1 C2.625 2.5 2.625 2.5 1 4 C0.34 4 -0.32 4 -1 4 C-1 4.66 -1 5.32 -1 6 C-1.99 6.33 -2.98 6.66 -4 7 C-4 6.01 -4 5.02 -4 4 C-2.68 3.67 -1.36 3.34 0 3 C0 2.01 0 1.02 0 0 Z " fill="#50228A" transform="translate(633,629)"/>
<path d="M0 0 C-2.31 1.65 -4.62 3.3 -7 5 C-7.33 3.68 -7.66 2.36 -8 1 C-2.25 -1.125 -2.25 -1.125 0 0 Z " fill="#0C0630" transform="translate(352,296)"/>
<path d="M0 0 C0.33 0 0.66 0 1 0 C1.25 3.25 1.25 3.25 1 7 C-0.32 8.32 -1.64 9.64 -3 11 C-2.01 7.37 -1.02 3.74 0 0 Z " fill="#9552D6" transform="translate(692,487)"/>
<path d="M0 0 C0.99 0.33 1.98 0.66 3 1 C0.36 2.98 -2.28 4.96 -5 7 C-5.33 6.01 -5.66 5.02 -6 4 C-5.195625 3.525625 -4.39125 3.05125 -3.5625 2.5625 C-1.15246512 1.23099846 -1.15246512 1.23099846 0 0 Z " fill="#9977DB" transform="translate(366,327)"/>
<path d="M0 0 C1.32 0.66 2.64 1.32 4 2 C2.02 3.32 0.04 4.64 -2 6 C-1.49396008 3.83125748 -1.00016187 2.00032373 0 0 Z " fill="#0B0128" transform="translate(626,668)"/>
<path d="M0 0 C2.875 0.25 2.875 0.25 6 1 C7.375 3.0625 7.375 3.0625 8 5 C4.62496331 3.8141763 2.35277269 2.72426311 0 0 Z " fill="#100235" transform="translate(440,639)"/>
<path d="M0 0 C0.99 0.33 1.98 0.66 3 1 C3 1.66 3 2.32 3 3 C4.32 3.66 5.64 4.32 7 5 C6.67 5.99 6.34 6.98 6 8 C4.9970458 6.85675161 3.99770973 5.71032809 3 4.5625 C2.443125 3.92441406 1.88625 3.28632812 1.3125 2.62890625 C0 1 0 1 0 0 Z " fill="#51218B" transform="translate(362,615)"/>
<path d="M0 0 C0.66 0.99 1.32 1.98 2 3 C-0.97 5.475 -0.97 5.475 -4 8 C-4 4.09161134 -2.49432124 2.88405893 0 0 Z " fill="#9754E3" transform="translate(632,589)"/>
<path d="M0 0 C0.66 0.33 1.32 0.66 2 1 C0.38405168 3.04119788 -1.2856382 5.04072937 -3 7 C-3.66 7 -4.32 7 -5 7 C-3.70700306 4.11562221 -2.34058637 2.12780579 0 0 Z " fill="#3D2D72" transform="translate(631,588)"/>
<path d="M0 0 C0.66 0.99 1.32 1.98 2 3 C0.63016497 6.16115776 0.0109362 6.9927092 -3 9 C-2.01 6.03 -1.02 3.06 0 0 Z " fill="#191139" transform="translate(565,574)"/>
<path d="M0 0 C2 0 2 0 3.625 1.125 C5.55651159 3.75887944 5.21205536 5.81916956 5 9 C2.67527795 6.14693203 1.2491742 3.45925163 0 0 Z " fill="#56228F" transform="translate(330,570)"/>
<path d="M0 0 C0.33 0.99 0.66 1.98 1 3 C-0.25 5.1875 -0.25 5.1875 -2 7 C-2.99 7 -3.98 7 -5 7 C-5 6.34 -5 5.68 -5 5 C-4.34 5 -3.68 5 -3 5 C-2.5359375 4.0409375 -2.5359375 4.0409375 -2.0625 3.0625 C-1 1 -1 1 0 0 Z " fill="#190E3F" transform="translate(345,348)"/>
<path d="M0 0 C0.33 0.66 0.66 1.32 1 2 C-3.39453125 6.00390625 -3.39453125 6.00390625 -5 7 C-5.99 6.67 -6.98 6.34 -8 6 C-5.36 4.02 -2.72 2.04 0 0 Z " fill="#0E0530" transform="translate(371,326)"/>
<path d="M0 0 C0 3 0 3 -2.5 5.6875 C-3.325 6.450625 -4.15 7.21375 -5 8 C-5.66 7.67 -6.32 7.34 -7 7 C-4.69 4.69 -2.38 2.38 0 0 Z " fill="#9277D7" transform="translate(320,323)"/>
</svg>
