<?xml version="1.0" encoding="UTF-8"?>
<svg version="1.1" xmlns="http://www.w3.org/2000/svg" width="500" height="500">
<path d="M0 0 C1.19882812 0.99386719 1.19882812 0.99386719 2.421875 2.0078125 C3.38609375 2.77351563 4.3503125 3.53921875 5.34375 4.328125 C9.95272841 8.02262357 14.29540099 11.77553146 18.421875 16.0078125 C19.44667969 17.05388672 19.44667969 17.05388672 20.4921875 18.12109375 C33.79367047 32.35823237 42.76079452 48.25066917 48.734375 66.6953125 C48.97712158 67.44272705 49.21986816 68.1901416 49.4699707 68.96020508 C52.98521551 80.40371339 53.83322862 91.7039073 53.796875 103.6328125 C53.79599884 104.3381311 53.79512268 105.04344971 53.79421997 105.7701416 C53.74838568 116.97781412 52.85976647 127.29934458 49.421875 138.0078125 C49.18049805 138.8107373 48.93912109 139.61366211 48.69042969 140.44091797 C40.88999876 166.19215191 25.02883517 187.80516561 4.421875 205.0078125 C3.67808594 205.65105469 2.93429687 206.29429687 2.16796875 206.95703125 C-14.78869584 221.17604653 -35.04880454 228.75966435 -56.06640625 234.9375 C-60.31579014 236.23264036 -64.42867597 237.82125557 -68.5390625 239.50390625 C-78.3630014 241.13281129 -89.78788741 235.5407235 -99.015625 232.4453125 C-99.81870087 232.17603943 -100.62177673 231.90676636 -101.44918823 231.6293335 C-130.67536415 221.77440621 -155.33957752 207.83174474 -174.578125 183.0078125 C-175.11711426 182.34620117 -175.65610352 181.68458984 -176.21142578 181.00292969 C-180.47497398 175.69991659 -183.94599771 170.29406664 -187.078125 164.2578125 C-187.54734375 163.35385742 -188.0165625 162.44990234 -188.5 161.51855469 C-202.73574811 133.25238176 -207.66704226 100.6773842 -198.578125 70.0078125 C-198.37155273 69.24404297 -198.16498047 68.48027344 -197.95214844 67.69335938 C-193.67496158 52.3874432 -186.10758827 36.9553853 -175.578125 25.0078125 C-175.13436523 24.50217773 -174.69060547 23.99654297 -174.23339844 23.47558594 C-171.08985708 19.91493335 -167.87582366 16.42639867 -164.578125 13.0078125 C-164.04823975 12.4509375 -163.51835449 11.8940625 -162.97241211 11.3203125 C-122.12931731 -30.73548394 -46.33738644 -36.45010971 0 0 Z M-105.578125 -0.9921875 C-106.24956543 -0.78851563 -106.92100586 -0.58484375 -107.61279297 -0.375 C-123.10736688 4.46962432 -137.07307321 12.53945944 -148.578125 24.0078125 C-149.6102072 24.93961413 -150.64556819 25.86779261 -151.68359375 26.79296875 C-168.6722033 42.31128954 -179.86260375 65.67267767 -181.89648438 88.59594727 C-182.0486227 92.19762461 -182.09743803 95.77803454 -182.078125 99.3828125 C-182.07167969 100.65286133 -182.06523437 101.92291016 -182.05859375 103.23144531 C-181.86620717 113.12163456 -180.60378458 120.96226264 -176.578125 130.0078125 C-176.28341309 130.70261719 -175.98870117 131.39742187 -175.68505859 132.11328125 C-170.35313581 144.64593386 -163.74416923 157.66604213 -153.578125 167.0078125 C-152.918125 167.0078125 -152.258125 167.0078125 -151.578125 167.0078125 C-151.33707031 167.58144531 -151.09601563 168.15507812 -150.84765625 168.74609375 C-145.8756008 177.60400177 -134.93126323 183.5357815 -126.578125 189.0078125 C-125.74539062 189.5646875 -124.91265625 190.1215625 -124.0546875 190.6953125 C-104.63769169 203.08090451 -80.32673437 208.6169595 -57.82763672 203.75268555 C-39.04124096 199.42991401 -23.33156534 191.33688132 -8.578125 179.0078125 C-7.51078125 178.15123047 -7.51078125 178.15123047 -6.421875 177.27734375 C14.19732134 160.16510089 29.97183664 135.8023865 33.234375 108.8203125 C33.32673541 107.21758779 33.38687495 105.61281466 33.421875 104.0078125 C33.47988281 102.39519531 33.47988281 102.39519531 33.5390625 100.75 C34.11544962 71.61042887 22.44790792 46.89815547 2.48046875 26.078125 C-16.52892251 6.75320047 -43.4538262 -4.82724963 -70.52392578 -5.28466797 C-82.76666662 -5.35746744 -93.87014033 -4.64055204 -105.578125 -0.9921875 Z " fill="#571999" transform="translate(321.578125,142.9921875)"/>
<path d="M0 0 C9.11372551 7.22823495 17.75991817 14.39173542 24.140625 24.2265625 C24.56947998 24.88277588 24.99833496 25.53898926 25.44018555 26.21508789 C34.27471673 39.99076748 39.71135695 55.56782107 40.015625 71.9765625 C40.05429687 72.83636719 40.09296875 73.69617188 40.1328125 74.58203125 C40.79192358 97.61430181 29.59107351 118.61014111 14.1640625 135.07421875 C-3.73010413 153.62226683 -28.0955951 170.38627078 -54.68554688 171.45043945 C-76.35388041 171.69667052 -99.35441215 161.91949402 -114.984375 146.9765625 C-116.33641728 145.84901026 -117.69049869 144.72389741 -119.046875 143.6015625 C-136.83561573 127.77321361 -150.32296821 106.98040449 -152.984375 82.9765625 C-153.13904543 79.87093383 -153.17435713 76.77323514 -153.171875 73.6640625 C-153.17251953 72.8289917 -153.17316406 71.9939209 -153.17382812 71.13354492 C-153.12286343 65.1828373 -152.49940914 59.75263014 -150.984375 53.9765625 C-150.324375 53.9765625 -149.664375 53.9765625 -148.984375 53.9765625 C-148.82582031 55.26949219 -148.66726562 56.56242187 -148.50390625 57.89453125 C-145.20333501 83.16399699 -134.16815616 102.48537722 -116.734375 120.91796875 C-114.984375 122.9765625 -114.984375 122.9765625 -113.984375 125.9765625 C-112.66724568 126.67469757 -111.33094836 127.33706081 -109.984375 127.9765625 C-108.66220523 129.13000349 -107.37319059 130.32196383 -106.109375 131.5390625 C-96.70207049 140.03648018 -85.69875174 146.23611432 -73.984375 150.9765625 C-73.14519531 151.316875 -72.30601562 151.6571875 -71.44140625 152.0078125 C-58.36017665 156.61718541 -45.61514045 153.9334938 -33.36328125 148.31640625 C-23.05144753 143.21171157 -3.17164108 133.28218091 1.015625 121.9765625 C0.025625 121.6465625 -0.964375 121.3165625 -1.984375 120.9765625 C-3.45703125 119.48046875 -3.45703125 119.48046875 -5.046875 117.5390625 C-7.8572492 114.21286013 -10.80219972 111.13964627 -13.921875 108.1015625 C-17.9964728 104.08244334 -21.54461873 99.86654039 -25.05078125 95.3515625 C-27.52343729 92.31444154 -30.25044234 89.62630244 -33.0546875 86.8984375 C-35.55623029 84.40702241 -37.84841459 81.76693191 -40.15234375 79.09375 C-45.51123455 72.90074614 -51.06640237 66.87949788 -56.609375 60.8515625 C-59.60613105 57.5926159 -62.58351938 54.32156826 -65.484375 50.9765625 C-68.47386381 47.53215148 -71.53123983 44.15410774 -74.609375 40.7890625 C-75.06505859 40.28955078 -75.52074219 39.79003906 -75.99023438 39.27539062 C-78.13730023 36.93512 -80.31460483 34.65031734 -82.57421875 32.41796875 C-84.88009776 30.08219179 -86.89403538 27.67952891 -88.921875 25.1015625 C-93.45065435 19.4864881 -98.31604262 14.24136601 -103.28686523 9.01611328 C-104.15613647 8.09934814 -104.15613647 8.09934814 -105.04296875 7.1640625 C-105.56173584 6.62136719 -106.08050293 6.07867187 -106.61499023 5.51953125 C-110.02275795 1.67979298 -110.02275795 1.67979298 -109.875 -1.02734375 C-107.28537927 -6.83127443 -98.12880758 -9.50316447 -92.609375 -11.7109375 C-62.14284691 -22.88439297 -26.23128349 -20.24719483 0 0 Z " fill="#2B3355" transform="translate(303.984375,167.0234375)"/>
<path d="M0 0 C1.19882812 0.99386719 1.19882812 0.99386719 2.421875 2.0078125 C3.38609375 2.77351563 4.3503125 3.53921875 5.34375 4.328125 C9.95272841 8.02262357 14.29540099 11.77553146 18.421875 16.0078125 C19.44667969 17.05388672 19.44667969 17.05388672 20.4921875 18.12109375 C31.16830408 29.54819191 39.72115197 42.44047326 45.421875 57.0078125 C45.84557373 58.07225586 45.84557373 58.07225586 46.27783203 59.15820312 C51.26085266 72.0382587 52.44923288 84.25656774 52.421875 98.0078125 C49.80144657 99.68175251 47.17481595 101.345696 44.546875 103.0078125 C43.80050781 103.48476562 43.05414063 103.96171875 42.28515625 104.453125 C41.21201172 105.12988281 41.21201172 105.12988281 40.1171875 105.8203125 C39.45734863 106.23925781 38.79750977 106.65820312 38.11767578 107.08984375 C36.421875 108.0078125 36.421875 108.0078125 34.421875 108.0078125 C34.421875 102.0678125 34.421875 96.1278125 34.421875 90.0078125 C33.761875 90.0078125 33.101875 90.0078125 32.421875 90.0078125 C32.29232422 88.87859375 32.29232422 88.87859375 32.16015625 87.7265625 C28.52238359 60.22633617 14.82367428 36.66918461 -6.328125 18.7578125 C-30.59211369 0.35600348 -60.11967103 -7.03542938 -90.28759766 -3.69189453 C-95.50658801 -2.8703771 -100.53841492 -1.56262853 -105.578125 0.0078125 C-106.24956543 0.21148437 -106.92100586 0.41515625 -107.61279297 0.625 C-123.10738141 5.46962886 -137.07198866 13.5394012 -148.578125 25.0078125 C-149.52945313 25.8534375 -150.48078125 26.6990625 -151.4609375 27.5703125 C-167.71693894 42.29406095 -176.83907013 63.7214387 -180.578125 85.0078125 C-181.238125 85.0078125 -181.898125 85.0078125 -182.578125 85.0078125 C-182.578125 92.9278125 -182.578125 100.8478125 -182.578125 109.0078125 C-186.38318683 107.10528158 -190.07533083 105.05675 -193.765625 102.9453125 C-194.40693359 102.58115234 -195.04824219 102.21699219 -195.70898438 101.84179688 C-200.45601139 99.12992611 -200.45601139 99.12992611 -201.578125 98.0078125 C-203.90910907 73.33268108 -193.39135083 46.50835744 -177.86328125 27.5703125 C-176.73212891 26.301875 -176.73212891 26.301875 -175.578125 25.0078125 C-175.13581543 24.50507813 -174.69350586 24.00234375 -174.23779297 23.484375 C-171.09255797 19.92086177 -167.87810878 16.42876755 -164.578125 13.0078125 C-164.04823975 12.4509375 -163.51835449 11.8940625 -162.97241211 11.3203125 C-122.12931731 -30.73548394 -46.33738644 -36.45010971 0 0 Z " fill="#D7D7ED" transform="translate(321.578125,142.9921875)"/>
<path d="M0 0 C0.33 0 0.66 0 1 0 C1.00410889 0.79470703 1.00821777 1.58941406 1.01245117 2.40820312 C1.07551829 24.20567045 1.07551829 24.20567045 7 45 C7.29326172 45.69480469 7.58652344 46.38960938 7.88867188 47.10546875 C13.12198235 59.39994036 19.22085235 70.70980974 29 80 C29 80.66 29 81.32 29 82 C29.66 82 30.32 82 31 82 C31.98432273 83.08426935 32.91138021 84.22065414 33.8125 85.375 C53.28773176 108.1969072 83.27810049 117.540627 112 121 C110.68 121.33 109.36 121.66 108 122 C108 132.56 108 143.12 108 154 C102.70925351 153.24417907 98.11495015 152.25046965 93.109375 150.59375 C92.37140182 150.35351105 91.63342865 150.11327209 90.87309265 149.86575317 C88.49547963 149.08660143 86.12214203 148.29564607 83.75 147.5 C82.93943146 147.22822937 82.12886292 146.95645874 81.29373169 146.67645264 C52.00151588 136.8000972 27.28621982 122.88544492 8 98 C7.46101074 97.33838867 6.92202148 96.67677734 6.36669922 95.99511719 C2.10315102 90.69210409 -1.36787271 85.28625414 -4.5 79.25 C-4.96921875 78.34604492 -5.4384375 77.44208984 -5.921875 76.51074219 C-18.07059427 52.38852555 -20.57494344 29.67442734 -20 3 C-19.67 3 -19.34 3 -19 3 C-19.10183594 3.61746094 -19.20367187 4.23492187 -19.30859375 4.87109375 C-19.47066821 8.09784899 -19.28448596 10.0028661 -18 13 C-13.66776124 16.90088409 -8.1479493 19.36352265 -3 22 C-2.01 22.66 -1.02 23.32 0 24 C0 16.08 0 8.16 0 0 Z " fill="#111239" transform="translate(139,228)"/>
<path d="M0 0 C0.66 0 1.32 0 2 0 C2.15855469 1.29292969 2.31710938 2.58585938 2.48046875 3.91796875 C5.78103999 29.18743449 16.81621884 48.50881472 34.25 66.94140625 C36 69 36 69 37 72 C38.31712932 72.69813507 39.65342664 73.36049831 41 74 C42.32216977 75.15344099 43.61118441 76.34540133 44.875 77.5625 C54.28230451 86.05991768 65.28562326 92.25955182 77 97 C77.83917969 97.3403125 78.67835938 97.680625 79.54296875 98.03125 C92.62419835 102.64062291 105.36923455 99.9569313 117.62109375 94.33984375 C128.17320327 89.11550826 137.77788116 82.28259662 146.7421875 74.671875 C149 73 149 73 152 73 C152.22429687 72.2884375 152.44859375 71.576875 152.6796875 70.84375 C154.30214967 67.34921609 156.42159067 65.24106127 159.125 62.5 C164.78704928 56.54360191 168.97807469 50.17847734 173 43 C173.69737155 41.81348152 174.3952996 40.62728998 175.09375 39.44140625 C181.94731231 27.52548141 186.34242453 14.8090848 187 1 C187.66 1 188.32 1 189 1 C194.27531887 20.17013198 191.0028924 41.83630934 181.3125 59 C165.57050448 85.84146133 140.73010368 106.27240994 110.8125 115.375 C87.73882493 121.03054549 67.08985378 113.32921873 47 102 C42.96695469 99.39742389 39.46522546 96.31290786 36 93 C34.64795772 91.87244776 33.29387631 90.74733491 31.9375 89.625 C14.14875927 73.79665111 0.66140679 53.00384199 -2 29 C-2.15467043 25.89437133 -2.18998213 22.79667264 -2.1875 19.6875 C-2.18814453 18.8524292 -2.18878906 18.0173584 -2.18945312 17.15698242 C-2.13848843 11.2062748 -1.51503414 5.77606764 0 0 Z " fill="#5B1B9C" transform="translate(153,221)"/>
<path d="M0 0 C2.47447782 1.23723891 3.32654075 2.63687341 4.9375 4.875 C7.66245265 8.65230009 10.10609815 11.40406543 14 14 C13.5359375 14.3196875 13.071875 14.639375 12.59375 14.96875 C-11.11033934 32.30457653 -25.92615336 56.11468008 -31 85 C-31.66 85 -32.32 85 -33 85 C-33 92.92 -33 100.84 -33 109 C-36.80506183 107.09746908 -40.49720583 105.0489375 -44.1875 102.9375 C-44.82880859 102.57333984 -45.47011719 102.20917969 -46.13085938 101.83398438 C-50.87788639 99.12211361 -50.87788639 99.12211361 -52 98 C-54.33098407 73.32486858 -43.81322583 46.50054494 -28.28515625 27.5625 C-27.53105469 26.716875 -26.77695313 25.87125 -26 25 C-25.55769043 24.49726563 -25.11538086 23.99453125 -24.65966797 23.4765625 C-21.51312962 19.9115726 -18.28132389 16.44114484 -15 13 C-14.34902344 12.30777344 -13.69804687 11.61554688 -13.02734375 10.90234375 C-9.03381677 6.76326681 -4.68824395 3.32439116 0 0 Z " fill="#A97EF9" transform="translate(172,143)"/>
<path d="M0 0 C0.33 0 0.66 0 1 0 C4.35066178 17.71955411 3.49920103 38.87089094 -2 56 C-2.24137695 56.8029248 -2.48275391 57.60584961 -2.73144531 58.43310547 C-6.33022856 70.31361695 -10.98230613 80.76221718 -18 91 C-18.39541992 91.5887793 -18.79083984 92.17755859 -19.19824219 92.78417969 C-25.62515121 102.26504711 -25.62515121 102.26504711 -29.31640625 104.23828125 C-33.8537846 103.83539904 -36.18426608 100.51657715 -39.1875 97.3125 C-39.81591797 96.67376953 -40.44433594 96.03503906 -41.09179688 95.37695312 C-43.98177038 92.38807144 -46.27071826 89.81676064 -48 86 C-46.8553125 84.9171875 -46.8553125 84.9171875 -45.6875 83.8125 C-43.22599173 81.23650298 -41.78546609 79.04400195 -40 76 C-38.94858533 74.41386587 -37.89693483 72.82788171 -36.84082031 71.24487305 C-23.57580375 51.17605989 -19.27990999 31.73678512 -18 8 C-17.67 8 -17.34 8 -17 8 C-17 13.94 -17 19.88 -17 26 C-6.40720703 21.92692715 -6.40720703 21.92692715 0.80517578 13.95605469 C1.50804258 9.21726948 0.88756971 4.67569404 0 0 Z " fill="#A33DF2" transform="translate(373,225)"/>
<path d="M0 0 C5.61555284 3.65763978 9.09728486 8.9634094 11.0390625 15.328125 C11.97133127 22.34891453 10.83247109 27.39926612 7.0390625 33.328125 C6.5028125 34.235625 5.9665625 35.143125 5.4140625 36.078125 C0.83867283 40.41270469 -5.19062301 42.50514255 -11.4609375 42.828125 C-18.39791284 42.44751219 -24.77394531 40.11359927 -29.4609375 34.890625 C-33.76720374 29.49527399 -34.46014533 24.21527126 -34.34375 17.47265625 C-33.58853482 11.26910295 -30.91604087 6.33467846 -26.5859375 1.890625 C-17.71697178 -3.38852126 -9.53707155 -4.78538572 0 0 Z " fill="#F3F3F4" transform="translate(213.9609375,201.671875)"/>
<path d="M0 0 C1.21171875 -0.02578125 2.4234375 -0.0515625 3.671875 -0.078125 C10.2385645 0.5240605 14.31830837 3.73014691 18.703125 8.3671875 C22.57590846 13.08103 23.83787644 17.947043 23.59375 23.91796875 C22.57343006 30.83991199 19.49495109 35.68856651 14.12890625 40.05859375 C7.86476682 44.03065722 1.46490045 44.05450847 -5.75 43.25 C-12.4692672 41.1993792 -16.05243014 37.20215538 -19.65625 31.3359375 C-22.10385676 26.66800175 -22.43226681 22.40666775 -21.75 17.25 C-19.35032635 9.78185677 -15.42428966 5.24278697 -8.75 1.25 C-5.83999203 -0.20500399 -3.2410667 0.04102616 0 0 Z " fill="#FBFBFC" transform="translate(290.75,199.75)"/>
<path d="M0 0 C2.20498892 1.62293982 4.11798458 3.42751409 6.10546875 5.30859375 C10.571046 9.29538746 15.75209993 9.39221367 21.4765625 9.24609375 C27.18137535 8.68974203 31.21850582 7.10276264 35.0625 2.8125 C37.44941477 0.20445416 37.86308792 0.02360553 41.625 -0.625 C45 0 45 0 47.4375 1.625 C49 4 49 4 49.6875 6.75 C48.357487 13.03733416 43.37539712 17.304594 38.1875 20.8125 C29.37422102 25.83895583 19.93856248 27.38802309 10 25.3125 C1.92253319 22.95793477 -5.54634095 19.41180898 -10 12 C-11.12978369 8.46942597 -11.2121007 6.73419473 -10.1875 3.1875 C-7.88671031 -1.0507968 -4.4368879 -0.57250166 0 0 Z " fill="#B9A5ED" transform="translate(228,272)"/>
<path d="M0 0 C0.66 0 1.32 0 2 0 C7.11406264 18.58413835 4.19351022 39.89491557 -4.875 56.75 C-6.40625 59.1953125 -6.40625 59.1953125 -8 61 C-11.375 61.625 -11.375 61.625 -14 61 C-13.67 62.65 -13.34 64.3 -13 66 C-13.639375 66.226875 -14.27875 66.45375 -14.9375 66.6875 C-17.27193661 67.85250896 -17.27193661 67.85250896 -17.75 70.625 C-17.8325 71.40875 -17.915 72.1925 -18 73 C-18.66 73 -19.32 73 -20 73 C-20 73.99 -20 74.98 -20 76 C-20.99 76.99 -20.99 76.99 -22 78 C-25.19431904 77.83793144 -26.64559917 77.32423905 -29.01953125 75.15234375 C-29.90705078 74.05599609 -29.90705078 74.05599609 -30.8125 72.9375 C-31.41707031 72.20402344 -32.02164062 71.47054687 -32.64453125 70.71484375 C-33.09183594 70.14894531 -33.53914063 69.58304687 -34 69 C-31.01921349 64.89459441 -27.98950636 60.93239609 -24.5625 57.1875 C-20.41186461 52.49072838 -17.17538787 47.39203978 -14 42 C-13.50234131 41.16637939 -13.50234131 41.16637939 -12.99462891 40.31591797 C-5.61469652 27.8169172 -0.69584044 14.61264925 0 0 Z " fill="#A846F6" transform="translate(340,222)"/>
<path d="M0 0 C0.66 0 1.32 0 2 0 C2.15855469 1.29292969 2.31710938 2.58585938 2.48046875 3.91796875 C4.38098517 18.46056342 7.81627136 30.11775078 15.7421875 42.63671875 C16.15726563 43.41660156 16.57234375 44.19648438 17 45 C16.67 45.66 16.34 46.32 16 47 C11.38903195 42.51037321 9.02433882 39.07301645 7 33 C6.02995879 30.98529902 5.03755118 28.98077953 4 27 C3.34 27.33 2.68 27.66 2 28 C1.59270772 30.32156597 1.25561323 32.6568787 1 35 C0.34 35 -0.32 35 -1 35 C-2.03209176 29.88082487 -2.19160771 24.94881642 -2.1875 19.75 C-2.18814453 18.91041748 -2.18878906 18.07083496 -2.18945312 17.20581055 C-2.13861497 11.2375272 -1.51951276 5.79314241 0 0 Z " fill="#5C2795" transform="translate(153,221)"/>
<path d="M0 0 C0.5534764 2.07553648 1 3.84365964 1 6 C-0.78953185 6.83790789 -2.58169695 7.67019396 -4.375 8.5 C-5.37273437 8.9640625 -6.37046875 9.428125 -7.3984375 9.90625 C-10 11 -10 11 -12 11 C-12 11.66 -12 12.32 -12 13 C-13.22782862 13.62762455 -14.45733836 14.25196065 -15.6875 14.875 C-16.37199219 15.22304688 -17.05648437 15.57109375 -17.76171875 15.9296875 C-28.84964057 21.2317653 -39.97069786 21.27167809 -52 21 C-52 20.67 -52 20.34 -52 20 C-51.14019531 19.97421875 -50.28039062 19.9484375 -49.39453125 19.921875 C-30.38345291 19.00967495 -14.98979768 11.2864359 0 0 Z " fill="#3B1168" transform="translate(292,302)"/>
<path d="M0 0 C1.98 0 3.96 0 6 0 C2.51145751 3.48854249 -2.38265029 4.48570789 -7 6 C-7.6909375 6.23203125 -8.381875 6.4640625 -9.09375 6.703125 C-20.44423918 9.85603866 -34.05130563 9.05149924 -45 5 C-41.53073195 3.92650454 -38.38413018 3.9136186 -34.765625 3.97265625 C-33.55132812 3.98490234 -32.33703125 3.99714844 -31.0859375 4.00976562 C-28.54421085 4.0447079 -26.00253664 4.08371974 -23.4609375 4.12695312 C-16.89571491 4.18594297 -11.28225949 3.9129629 -5 2 C-2 1.875 -2 1.875 0 2 C0 1.34 0 0.68 0 0 Z " fill="#441771" transform="translate(272,330)"/>
<path d="M0 0 C2.9375 2.5 2.9375 2.5 5 5 C2.66785852 6.20628008 0.50357861 7.1654738 -2 8 C-2.99 7.34 -3.98 6.68 -5 6 C-5.99 6.495 -5.99 6.495 -7 7 C-6.4740625 8.6396875 -6.4740625 8.6396875 -5.9375 10.3125 C-5 14 -5 14 -6 17 C-9.27120791 13.41222358 -10.79585884 10.89938774 -11 6 C-10.1875 3.1875 -10.1875 3.1875 -9 1 C-5.86128812 -0.56935594 -3.46144178 -0.35201103 0 0 Z " fill="#AC9AE0" transform="translate(228,272)"/>
<path d="M0 0 C3.08903683 5.19862296 2.72002313 11.10682833 3 17 C3.04253906 17.87527344 3.08507812 18.75054687 3.12890625 19.65234375 C3.38913044 30.35623217 1.27217965 41.17064916 -3 51 C-3.99 51.495 -3.99 51.495 -5 52 C-5.37865648 45.56283992 -5.37865648 45.56283992 -3.5625 42.86328125 C-1.34454429 38.7988774 -1.17441534 34.94220516 -0.8125 30.375 C-0.69189209 29.00275269 -0.69189209 29.00275269 -0.56884766 27.6027832 C0.17298786 18.39943579 0.18977754 9.22529692 0 0 Z " fill="#8033B8" transform="translate(341,222)"/>
<path d="M0 0 C2.475 0.99 2.475 0.99 5 2 C2.15091584 7.18100783 -1.68544577 11.10456152 -5.72265625 15.37890625 C-7.63464898 17.57950165 -8.89084274 19.3367693 -10 22 C-10.66 21.67 -11.32 21.34 -12 21 C-11.34 19.68 -10.68 18.36 -10 17 C-10.66 17 -11.32 17 -12 17 C-12 15.68 -12 14.36 -12 13 C-11.34 13 -10.68 13 -10 13 C-10 12.34 -10 11.68 -10 11 C-9.030625 10.5875 -8.06125 10.175 -7.0625 9.75 C-3.89909271 8.38402905 -3.89909271 8.38402905 -3.3125 6.0625 C-3.1578125 5.0415625 -3.1578125 5.0415625 -3 4 C-1.4375 1.75 -1.4375 1.75 0 0 Z " fill="#312F60" transform="translate(315,272)"/>
<path d="M0 0 C0.99 0.99 1.98 1.98 3 3 C1.96432853 6.10701442 1.218333 6.78718524 -1 9 C-4.21679372 14.42417976 -5.46807234 19.5725221 -5.7265625 25.8359375 C-6 28 -6 28 -8 31 C-8.44111565 32.88154883 -8.8109267 34.78062638 -9.125 36.6875 C-9.29257813 37.68136719 -9.46015625 38.67523438 -9.6328125 39.69921875 C-9.75398438 40.45847656 -9.87515625 41.21773437 -10 42 C-10.33 42 -10.66 42 -11 42 C-11.22644848 35.36639152 -10.541735 29.6619614 -8.875 23.25 C-8.65561768 22.3847168 -8.43623535 21.51943359 -8.21020508 20.62792969 C-6.26662164 13.31554517 -3.55465422 6.69398802 0 0 Z " fill="#7F5DB8" transform="translate(131,192)"/>
<path d="M0 0 C0.33 0 0.66 0 1 0 C1 9.9 1 19.8 1 30 C3.64 29.34 6.28 28.68 9 28 C10.32 28 11.64 28 13 28 C13 27.34 13 26.68 13 26 C17.873261 24.4087311 21.80790596 23.78807779 27 24 C24.46276559 26.53723441 22.37531783 26.93631095 18.9375 27.9375 C14.18063993 29.34401344 9.47937105 30.82618536 4.8046875 32.484375 C3 33 3 33 0 33 C0 22.11 0 11.22 0 0 Z " fill="#381866" transform="translate(247,350)"/>
<path d="M0 0 C2.47447782 1.23723891 3.32654075 2.63687341 4.9375 4.875 C7.66245265 8.65230009 10.10609815 11.40406543 14 14 C11.03 15.98 8.06 17.96 5 20 C4.67 19.01 4.34 18.02 4 17 C4.66 17 5.32 17 6 17 C5.5359375 15.1128125 5.5359375 15.1128125 5.0625 13.1875 C4.88847656 12.47980469 4.71445313 11.77210938 4.53515625 11.04296875 C4.08989295 9.34316798 3.55566015 7.66698046 3 6 C0.03 6 -2.94 6 -6 6 C-4 4 -2 2 0 0 Z " fill="#A37EF2" transform="translate(172,143)"/>
<path d="M0 0 C0.33 0 0.66 0 1 0 C1 5.94 1 11.88 1 18 C1.66 18 2.32 18 3 18 C2.690625 18.804375 2.38125 19.60875 2.0625 20.4375 C1.19298951 23.35291754 0.86214945 25.41109604 0.6875 28.375 C0.23662764 33.48199652 -2.00336868 36.94183139 -5 41 C-6.26157322 37.21528035 -5.48624437 36.04352183 -4.1875 32.3125 C-0.98979689 21.81208391 -0.66107122 10.90230055 0 0 Z " fill="#7652A1" transform="translate(355,233)"/>
<path d="M0 0 C2.475 0.495 2.475 0.495 5 1 C1.40645255 4.89244364 -2.28835814 7.62021284 -6.9375 10.1875 C-7.53240234 10.52974609 -8.12730469 10.87199219 -8.74023438 11.22460938 C-12.3940193 13.28111127 -15.98443144 14.80452539 -20 16 C-19.67 15.01 -19.34 14.02 -19 13 C-17.68 13 -16.36 13 -15 13 C-15 11.35 -15 9.7 -15 8 C-14.29875 8.061875 -13.5975 8.12375 -12.875 8.1875 C-9.34650477 7.95738075 -7.10987687 6.62254445 -4 5 C-3.01 5 -2.02 5 -1 5 C-0.67 3.35 -0.34 1.7 0 0 Z " fill="#4B197C" transform="translate(298,314)"/>
<path d="M0 0 C1.99276872 2.98915308 2.98989973 5.56541734 4.1875 8.9375 C6.43390748 14.95490383 9.31183852 20.21848972 12.7421875 25.63671875 C13.15726563 26.41660156 13.57234375 27.19648438 14 28 C13.67 28.66 13.34 29.32 13 30 C8.38903195 25.51037321 6.02433882 22.07301645 4 16 C3.505 15.01 3.01 14.02 2.5 13 C-1.24 5.52 -1.24 5.52 -0.625 1.625 C-0.41875 1.08875 -0.2125 0.5525 0 0 Z " fill="#3D1366" transform="translate(156,238)"/>
<path d="M0 0 C0.33 0 0.66 0 1 0 C1.69277882 4.58965967 2.12537595 9.10775396 2.25 13.75 C2.28867187 15.10351562 2.28867187 15.10351562 2.328125 16.484375 C1.93597558 19.49085386 0.95676927 20.73072458 -1 23 C-2.01656081 24.65661761 -3.02065076 26.32111559 -4 28 C-4.66 27.67 -5.32 27.34 -6 27 C-5.65066406 25.88882813 -5.30132812 24.77765625 -4.94140625 23.6328125 C-2.50533546 15.72558089 -0.39614251 8.31899277 0 0 Z " fill="#A35CE8" transform="translate(340,222)"/>
<path d="M0 0 C1.65 0 3.3 0 5 0 C3.57667134 4.05611794 1.61408397 7.17537252 -0.9375 10.625 C-1.97197266 12.03652344 -1.97197266 12.03652344 -3.02734375 13.4765625 C-4.59656146 15.48391823 -6.14338323 17.26560565 -8 19 C-8.99 18.67 -9.98 18.34 -11 18 C-10.01 16.515 -10.01 16.515 -9 15 C-8.01 15 -7.02 15 -6 15 C-6 14.01 -6 13.02 -6 12 C-5.34 12 -4.68 12 -4 12 C-4 10.35 -4 8.7 -4 7 C-2.35 6.34 -0.7 5.68 1 5 C0.67 3.35 0.34 1.7 0 0 Z " fill="#7F37C0" transform="translate(326,283)"/>
<path d="M0 0 C2 1 2 1 3 3 C2.030625 3.639375 1.06125 4.27875 0.0625 4.9375 C-2.76036269 6.6965259 -2.76036269 6.6965259 -4 8 C-6.33297433 8.04092937 -8.66705225 8.04241723 -11 8 C-11 8.66 -11 9.32 -11 10 C-13.70879335 11.35439668 -16.00933268 11.06501451 -19 11 C-15.3897612 8.07478087 -11.45310672 5.9374902 -7.375 3.75 C-6.694375 3.37359375 -6.01375 2.9971875 -5.3125 2.609375 C-3.57474534 1.67524601 -1.78985041 0.82995406 0 0 Z " fill="#441878" transform="translate(298,332)"/>
<path d="M0 0 C0.66 0.66 1.32 1.32 2 2 C1.74720759 12.39422899 -1.12846254 26.94647796 -8 35 C-7.39071162 31.43947105 -6.39342078 28.38724297 -5 25.0625 C-2.86852738 19.39909259 -2.41105379 14.08266117 -2.17578125 8.06640625 C-1.81756757 1.81756757 -1.81756757 1.81756757 0 0 Z " fill="#422E78" transform="translate(339,220)"/>
<path d="M0 0 C-3.27577385 3.27577385 -7.62189071 4.47850167 -11.875 6.1875 C-12.78636719 6.56841797 -13.69773437 6.94933594 -14.63671875 7.34179688 C-15.51714844 7.69693359 -16.39757812 8.05207031 -17.3046875 8.41796875 C-18.10890137 8.74563232 -18.91311523 9.0732959 -19.74169922 9.41088867 C-22.24972352 10.06514409 -23.58276915 9.84827858 -26 9 C-23.65408148 6.2289312 -21.85223799 5.47940716 -18.3125 4.8125 C-17.10013672 4.57466797 -17.10013672 4.57466797 -15.86328125 4.33203125 C-14.94095703 4.16767578 -14.94095703 4.16767578 -14 4 C-14 3.67 -14 3.34 -14 3 C-12.35 3 -10.7 3 -9 3 C-9 2.34 -9 1.68 -9 1 C-3.375 -1.125 -3.375 -1.125 0 0 Z " fill="#42176F" transform="translate(300,364)"/>
<path d="M0 0 C-0.33 1.32 -0.66 2.64 -1 4 C-8.09038772 5.50974035 -14.75002578 6.28307925 -22 6 C-22 5.34 -22 4.68 -22 4 C-18.89688362 3.32838005 -15.79234832 2.66356325 -12.6875 2 C-11.80642578 1.80921875 -10.92535156 1.6184375 -10.01757812 1.421875 C-9.17001953 1.24140625 -8.32246094 1.0609375 -7.44921875 0.875 C-6.66893311 0.70742188 -5.88864746 0.53984375 -5.0847168 0.3671875 C-3 0 -3 0 0 0 Z " fill="#351366" transform="translate(274,344)"/>
<path d="M0 0 C0.99 0 1.98 0 3 0 C4.7479503 5.24385089 5.19392201 9.47322267 5 15 C5.66 15 6.32 15 7 15 C7.66 17.97 8.32 20.94 9 24 C2.62094362 17.62094362 1.25223042 8.66675267 0 0 Z " fill="#3F146A" transform="translate(153,257)"/>
<path d="M0 0 C0.33 0 0.66 0 1 0 C1.4921875 3.16015625 1.4921875 3.16015625 1 7 C-1.29430775 9.3683423 -4.00691584 10.84657127 -6.875 12.4375 C-7.62136719 12.88287109 -8.36773437 13.32824219 -9.13671875 13.78710938 C-14.61491935 17 -14.61491935 17 -17 17 C-16.67 15.35 -16.34 13.7 -16 12 C-15.67 12.66 -15.34 13.32 -15 14 C-14.34 14 -13.68 14 -13 14 C-12.95875 13.401875 -12.9175 12.80375 -12.875 12.1875 C-12 10 -12 10 -9.1875 8.3125 C-6 7 -6 7 -3.75 6.6875 C-2.88375 6.3471875 -2.88375 6.3471875 -2 6 C-0.6954344 3.00384054 -0.6954344 3.00384054 0 0 Z " fill="#E7D7FD" transform="translate(373,234)"/>
<path d="M0 0 C0.33 0.66 0.66 1.32 1 2 C0.14785534 4.31939373 -0.76306973 6.55123051 -1.75 8.8125 C-4.67960657 15.77391619 -6.57122791 22.5678785 -8 30 C-8.33 30 -8.66 30 -9 30 C-9.11521265 24.58500559 -8.68201156 19.37084106 -8 14 C-7.34 14 -6.68 14 -6 14 C-6 11.69 -6 9.38 -6 7 C-5.34 7 -4.68 7 -4 7 C-4 5.68 -4 4.36 -4 3 C-3.01 3 -2.02 3 -1 3 C-0.67 2.01 -0.34 1.02 0 0 Z " fill="#5F3E94" transform="translate(149,197)"/>
<path d="M0 0 C2.75 0.25 2.75 0.25 5 1 C4.62875 1.5775 4.2575 2.155 3.875 2.75 C2.72992413 4.96276722 2.72992413 4.96276722 3.75 7.0625 C4.81819335 8.71819969 5.90703248 10.36054873 7 12 C6.67 12.99 6.34 13.98 6 15 C2.7 11.37 -0.6 7.74 -4 4 C-2.68 2.68 -1.36 1.36 0 0 Z " fill="#DED4FC" transform="translate(177,141)"/>
<path d="M0 0 C0.05807043 3.10408807 0.09361914 6.2080364 0.125 9.3125 C0.14175781 10.19357422 0.15851563 11.07464844 0.17578125 11.98242188 C0.18222656 12.82998047 0.18867188 13.67753906 0.1953125 14.55078125 C0.20578613 15.33106689 0.21625977 16.11135254 0.22705078 16.9152832 C0 19 0 19 -2 22 C-2 16.39 -2 10.78 -2 5 C-3.5675 5.639375 -5.135 6.27875 -6.75 6.9375 C-9.81292078 8.18684926 -12.76834156 9.28269264 -16 10 C-4.46153846 0 -4.46153846 0 0 0 Z " fill="#974EE0" transform="translate(374,241)"/>
<path d="M0 0 C5.00624798 1.28365333 8.67933819 3.63462329 12.8515625 6.5625 C14.84600668 7.89696447 16.83150527 8.97953189 19 10 C19 10.99 19 11.98 19 13 C14.1031588 11.64914725 10.70658001 9.58312987 6.6875 6.5 C5.63949219 5.7059375 4.59148437 4.911875 3.51171875 4.09375 C1 2 1 2 0 0 Z " fill="#4E197E" transform="translate(189,313)"/>
<path d="M0 0 C0 0.99 0 1.98 0 3 C-0.639375 3.61875 -1.27875 4.2375 -1.9375 4.875 C-4.20952878 6.81736748 -4.20952878 6.81736748 -4.4375 9.5 C-5.36589312 13.62619166 -8.41517641 14.97753317 -11.81640625 17.171875 C-13.49704956 18.19640078 -15.24616467 19.10653672 -17 20 C-17.66 19.67 -18.32 19.34 -19 19 C-18.21496094 18.29875 -17.42992187 17.5975 -16.62109375 16.875 C-10.69794032 11.54095715 -5.04454319 6.19910414 0 0 Z " fill="#39136A" transform="translate(330,304)"/>
<path d="M0 0 C0.66 1.32 1.32 2.64 2 4 C1.401875 4.53625 0.80375 5.0725 0.1875 5.625 C-2.16349793 7.93278076 -2.16349793 7.93278076 -3.4375 11.125 C-5 14 -5 14 -7.6875 15.375 C-8.450625 15.58125 -9.21375 15.7875 -10 16 C-8.55797524 11.84848662 -6.4989562 8.70021555 -3.875 5.1875 C-3.15054688 4.21167969 -2.42609375 3.23585937 -1.6796875 2.23046875 C-0.84824219 1.12638672 -0.84824219 1.12638672 0 0 Z " fill="#8A71CB" transform="translate(146,168)"/>
<path d="M0 0 C0.5534764 2.07553648 1 3.84365964 1 6 C-0.78710586 6.86366822 -2.5798465 7.71568594 -4.375 8.5625 C-5.37273437 9.03816406 -6.37046875 9.51382812 -7.3984375 10.00390625 C-8.25695312 10.33261719 -9.11546875 10.66132813 -10 11 C-10.66 10.67 -11.32 10.34 -12 10 C-8.29909479 6.0747975 -4.45040344 3.05419844 0 0 Z " fill="#481B79" transform="translate(292,302)"/>
<path d="M0 0 C0.33 0 0.66 0 1 0 C1 6.6 1 13.2 1 20 C-2.04951395 18.47524303 -4.36399506 17.07114674 -7 15 C-6.38125 14.938125 -5.7625 14.87625 -5.125 14.8125 C-2.83148545 14.18758442 -2.83148545 14.18758442 -1.8125 12 C-0.73781007 8.0319141 -0.33854696 4.08929088 0 0 Z " fill="#8C6CCD" transform="translate(138,232)"/>
<path d="M0 0 C2.69074659 8.07223978 -1.72982995 19.47605407 -5 27 C-5.66 27.33 -6.32 27.66 -7 28 C-7.41439822 22.92362175 -6.76572509 20.40276022 -4.01953125 16.171875 C-2.17583743 12.24431269 -1.91501419 7.96619121 -1.39453125 3.6953125 C-1 1 -1 1 0 0 Z " fill="#541D85" transform="translate(343,246)"/>
<path d="M0 0 C0.66 0.33 1.32 0.66 2 1 C-0.1638321 5.59814321 -3.16369814 7.79591266 -7.2578125 10.5703125 C-9.28864135 11.97799884 -9.28864135 11.97799884 -10 15 C-12.5625 16.1875 -12.5625 16.1875 -15 17 C-13.67879172 14.06769807 -12.25361803 12.01335101 -9.9609375 9.765625 C-9.38085938 9.19199219 -8.80078125 8.61835938 -8.203125 8.02734375 C-7.59984375 7.44082031 -6.9965625 6.85429687 -6.375 6.25 C-5.76398438 5.64800781 -5.15296875 5.04601562 -4.5234375 4.42578125 C-3.02011376 2.94594695 -1.51065144 1.47235324 0 0 Z " fill="#7C60B9" transform="translate(164,149)"/>
<path d="M0 0 C0.66 0 1.32 0 2 0 C2 0.99 2 1.98 2 3 C2.66 3.33 3.32 3.66 4 4 C3.443125 4.86625 3.443125 4.86625 2.875 5.75 C2.58625 6.4925 2.2975 7.235 2 8 C2.63270867 9.34977849 3.30062468 10.68352881 4 12 C3.625 14.25 3.625 14.25 3 16 C-0.27120791 12.41222358 -1.79585884 9.89938774 -2 5 C-1.0625 2.125 -1.0625 2.125 0 0 Z " fill="#9D86C8" transform="translate(219,273)"/>
<path d="M0 0 C0.66 0 1.32 0 2 0 C2.25 7.625 2.25 7.625 0 11 C-0.27599951 13.61601555 -0.27599951 13.61601555 -0.1953125 16.54296875 C-0.18886719 17.61611328 -0.18242187 18.68925781 -0.17578125 19.79492188 C-0.15902344 20.91447266 -0.14226562 22.03402344 -0.125 23.1875 C-0.11597656 24.31865234 -0.10695312 25.44980469 -0.09765625 26.61523438 C-0.07406862 29.41036828 -0.041153 32.20507845 0 35 C-0.33 35 -0.66 35 -1 35 C-2.03209176 29.88082487 -2.19160771 24.94881642 -2.1875 19.75 C-2.18814453 18.91041748 -2.18878906 18.07083496 -2.18945312 17.20581055 C-2.13861497 11.2375272 -1.51951276 5.79314241 0 0 Z " fill="#250E4A" transform="translate(153,221)"/>
<path d="M0 0 C2.31 0.33 4.62 0.66 7 1 C7 1.66 7 2.32 7 3 C9.54194161 2.85811015 12.08347993 2.71160845 14.625 2.5625 C15.33785156 2.52318359 16.05070312 2.48386719 16.78515625 2.44335938 C20.91803682 2.19690319 24.92269024 1.76529947 29 1 C28 3 28 3 26.20629883 3.61669922 C23.99030029 4.00168513 21.94709059 4.12934165 19.69921875 4.1328125 C18.88646484 4.13410156 18.07371094 4.13539063 17.23632812 4.13671875 C15.9746582 4.13091797 15.9746582 4.13091797 14.6875 4.125 C13.85798828 4.12886719 13.02847656 4.13273437 12.17382812 4.13671875 C7.34334094 4.12909367 2.76277452 3.80986449 -2 3 C-1.34 2.01 -0.68 1.02 0 0 Z " fill="#502188" transform="translate(233,320)"/>
<path d="M0 0 C0.33 0.99 0.66 1.98 1 3 C-4.83098592 8.99295775 -4.83098592 8.99295775 -8 11 C-8.99 11 -9.98 11 -11 11 C-9.40768051 6.70073737 -6.60686641 4.64994267 -3 2 C-2.01 2 -1.02 2 0 2 C0 1.34 0 0.68 0 0 Z " fill="#4E1C7F" transform="translate(305,292)"/>
<path d="M0 0 C-0.19140625 1.79296875 -0.19140625 1.79296875 -1 4 C-3.21484375 5.73828125 -3.21484375 5.73828125 -5.9375 7.3125 C-6.83339844 7.84488281 -7.72929687 8.37726563 -8.65234375 8.92578125 C-9.81443359 9.45751953 -9.81443359 9.45751953 -11 10 C-11.66 9.67 -12.32 9.34 -13 9 C-12.01 8.34 -11.02 7.68 -10 7 C-8.80767387 4.94996045 -8.80767387 4.94996045 -8 3 C-7.01 3.33 -6.02 3.66 -5 4 C-4.67 3.01 -4.34 2.02 -4 1 C-2 0 -2 0 0 0 Z " fill="#3E156E" transform="translate(317,352)"/>
<path d="M0 0 C1.1725131 0.95117134 2.33787015 1.91117009 3.5 2.875 C4.47453125 3.67550781 4.47453125 3.67550781 5.46875 4.4921875 C5.9740625 4.98976563 6.479375 5.48734375 7 6 C7 6.66 7 7.32 7 8 C7.61875 8.268125 8.2375 8.53625 8.875 8.8125 C11 10 11 10 13 13 C9.59687262 11.94124926 6.98646769 10.99097846 4 9 C4 8.34 4 7.68 4 7 C3.34 6.67 2.68 6.34 2 6 C2 5.34 2 4.68 2 4 C1.36525925 2.65117592 0.70151152 1.3153341 0 0 Z " fill="#3D0F68" transform="translate(183,285)"/>
<path d="M0 0 C0.33 0 0.66 0 1 0 C1.36774194 6.49677419 1.36774194 6.49677419 -0.1875 8.625 C-0.785625 9.07875 -1.38375 9.5325 -2 10 C-2.886875 10.886875 -3.77375 11.77375 -4.6875 12.6875 C-5.450625 13.450625 -6.21375 14.21375 -7 15 C-7 11.07573665 -5.55673531 9.17100092 -3.5625 5.8125 C-2.92441406 4.72582031 -2.28632813 3.63914062 -1.62890625 2.51953125 C-1.09136719 1.68808594 -0.55382812 0.85664063 0 0 Z " fill="#6B27A5" transform="translate(343,285)"/>
<path d="M0 0 C0.33 0 0.66 0 1 0 C1.67081836 6.43985624 -0.24569762 9.83783423 -4 15 C-5.25150676 11.24547973 -4.51651855 10.01214159 -3.125 6.375 C-2.75632812 5.39273437 -2.38765625 4.41046875 -2.0078125 3.3984375 C-1 1 -1 1 0 0 Z " fill="#7C34BA" transform="translate(354,259)"/>
<path d="M0 0 C0 0.66 0 1.32 0 2 C-0.99 2.495 -0.99 2.495 -2 3 C-2 3.99 -2 4.98 -2 6 C-4.5 8.6875 -4.5 8.6875 -7 11 C-7.875 8.3125 -7.875 8.3125 -8 5 C-5.93611878 2.39829956 -3.46710718 0 0 0 Z " fill="#8B3ADA" transform="translate(339,298)"/>
<path d="M0 0 C5.91969002 1.75990784 11.41634992 4.39694605 17 7 C12.33876542 8.55374486 8.45123983 6.79943738 4 5 C1.375 2.875 1.375 2.875 0 1 C0 0.67 0 0.34 0 0 Z " fill="#330E63" transform="translate(215,312)"/>
<path d="M0 0 C1.72274487 2.58411731 2.68895522 4.54902656 3.6875 7.4375 C3.95949219 8.19933594 4.23148438 8.96117187 4.51171875 9.74609375 C5.04729142 12.21829721 4.80445309 13.62983284 4 16 C-1.29779412 5.88602941 -1.29779412 5.88602941 -0.625 1.625 C-0.41875 1.08875 -0.2125 0.5525 0 0 Z " fill="#481A71" transform="translate(156,238)"/>
<path d="M0 0 C0.33 0 0.66 0 1 0 C0.99097656 0.67546875 0.98195313 1.3509375 0.97265625 2.046875 C0.96782307 7.31191181 0.96782307 7.31191181 3.625 11.5546875 C5.76008965 12.78636006 5.76008965 12.78636006 9 14 C8.34 14.66 7.68 15.32 7 16 C2.25 14.125 2.25 14.125 0 13 C0 8.71 0 4.42 0 0 Z " fill="#261553" transform="translate(119,231)"/>
<path d="M0 0 C2.97 0.99 5.94 1.98 9 3 C9 3.99 9 4.98 9 6 C8.34 6 7.68 6 7 6 C7.33 7.32 7.66 8.64 8 10 C4.74475735 6.97727468 2.38179263 3.74281699 0 0 Z " fill="#B6B6CE" transform="translate(331,177)"/>
<path d="M0 0 C1 3 1 3 -0.14453125 5.8828125 C-0.69496094 6.95273437 -1.24539063 8.02265625 -1.8125 9.125 C-2.35519531 10.20007813 -2.89789063 11.27515625 -3.45703125 12.3828125 C-5 15 -5 15 -7 16 C-6.67 14.02 -6.34 12.04 -6 10 C-5.34 10 -4.68 10 -4 10 C-4 8.35 -4 6.7 -4 5 C-3.34 5 -2.68 5 -2 5 C-2 4.01 -2 3.02 -2 2 C-1.34 2 -0.68 2 0 2 C0 1.34 0 0.68 0 0 Z " fill="#602194" transform="translate(364,295)"/>
<path d="M0 0 C0.33 0 0.66 0 1 0 C1 1.65 1 3.3 1 5 C-0.32 5.33 -1.64 5.66 -3 6 C-2.67 7.65 -2.34 9.3 -2 11 C-2.99 11 -3.98 11 -5 11 C-5.66 10.01 -6.32 9.02 -7 8 C-5.85760183 6.66372225 -4.71098945 5.33104612 -3.5625 4 C-2.92441406 3.2575 -2.28632813 2.515 -1.62890625 1.75 C-1.09136719 1.1725 -0.55382812 0.595 0 0 Z " fill="#9F52E7" transform="translate(313,282)"/>
<path d="M0 0 C0.66 0.33 1.32 0.66 2 1 C-1.96 4.96 -5.92 8.92 -10 13 C-10.33 12.01 -10.66 11.02 -11 10 C-10.34 10 -9.68 10 -9 10 C-8.938125 9.401875 -8.87625 8.80375 -8.8125 8.1875 C-7.67020358 5.11208657 -5.82171939 4.54522728 -3 3 C-1.24850835 1.41754725 -1.24850835 1.41754725 0 0 Z " fill="#653995" transform="translate(172,166)"/>
<path d="M0 0 C1.65 0.33 3.3 0.66 5 1 C2.24479785 3.95929119 -0.46627288 6.03681826 -4 8 C-4.33 7.01 -4.66 6.02 -5 5 C-4.34 5 -3.68 5 -3 5 C-2.67 3.68 -2.34 2.36 -2 1 C-1.34 1.33 -0.68 1.66 0 2 C0 1.34 0 0.68 0 0 Z " fill="#8466C1" transform="translate(181,155)"/>
<path d="M0 0 C0.66 0.33 1.32 0.66 2 1 C0.88147781 2.98283479 -0.24501325 4.96117623 -1.375 6.9375 C-2.31472656 8.59072266 -2.31472656 8.59072266 -3.2734375 10.27734375 C-5 13 -5 13 -7 14 C-6.01 10.7 -5.02 7.4 -4 4 C-3.34 4 -2.68 4 -2 4 C-1.34 2.68 -0.68 1.36 0 0 Z " fill="#3E2B77" transform="translate(329,256)"/>
<path d="M0 0 C0.66 0.33 1.32 0.66 2 1 C-1.63 4.3 -5.26 7.6 -9 11 C-9.33 9.68 -9.66 8.36 -10 7 C-9.030625 6.566875 -8.06125 6.13375 -7.0625 5.6875 C-3.72268235 4.2985139 -3.72268235 4.2985139 -3 1 C-2.01 0.67 -1.02 0.34 0 0 Z " fill="#391364" transform="translate(313,304)"/>
<path d="M0 0 C1.48819457 0.9019361 2.96532813 1.82214129 4.4375 2.75 C5.26121094 3.26046875 6.08492187 3.7709375 6.93359375 4.296875 C9.21744593 6.1792182 9.65514457 7.1157546 10 10 C8.02 9.34 6.04 8.68 4 8 C4 7.01 4 6.02 4 5 C3.34 5 2.68 5 2 5 C1.34 3.35 0.68 1.7 0 0 Z " fill="#3D166D" transform="translate(196,298)"/>
<path d="M0 0 C4.21814817 3.9700218 7.61227103 8.30840284 11 13 C10.67 13.66 10.34 14.32 10 15 C9.01830524 13.87720538 8.03972702 12.75168527 7.0625 11.625 C6.51722656 10.99851562 5.97195312 10.37203125 5.41015625 9.7265625 C4 8 4 8 3 6 C2.01 5.67 1.02 5.34 0 5 C0 3.35 0 1.7 0 0 Z " fill="#320D62" transform="translate(170,268)"/>
<path d="M0 0 C0.99 0 1.98 0 3 0 C6.22265625 5.17578125 6.22265625 5.17578125 7 7 C6.67 7.99 6.34 8.98 6 10 C4.99421411 8.71283353 3.99553202 7.42011342 3 6.125 C2.443125 5.40570313 1.88625 4.68640625 1.3125 3.9453125 C0 2 0 2 0 0 Z " fill="#461675" transform="translate(162,281)"/>
<path d="M0 0 C3 1 3 1 4 3 C4.1875 6 4.1875 6 4 9 C3.34 9.66 2.68 10.32 2 11 C1.664061 9.5422647 1.33133376 8.08378894 1 6.625 C0.814375 5.81289063 0.62875 5.00078125 0.4375 4.1640625 C0 2 0 2 0 0 Z " fill="#907FB5" transform="translate(273,273)"/>
<path d="M0 0 C0.66 0.33 1.32 0.66 2 1 C0.8553125 1.6496875 0.8553125 1.6496875 -0.3125 2.3125 C-2.9699219 3.79384936 -2.9699219 3.79384936 -4.4375 5.6875 C-6.82260698 7.69098986 -9.00366495 7.19975567 -12 7 C-8.44008172 4.03340143 -4.34777457 1.618652 0 0 Z " fill="#330E60" transform="translate(291,336)"/>
<path d="M0 0 C1.32 0 2.64 0 4 0 C2.61811547 3.21043882 1.07578097 5.04936365 -1.625 7.25 C-2.57246094 8.03117187 -2.57246094 8.03117187 -3.5390625 8.828125 C-4.02117187 9.21484375 -4.50328125 9.6015625 -5 10 C-5 9.01 -5 8.02 -5 7 C-4.34 7 -3.68 7 -3 7 C-1.79371992 4.66785852 -0.8345262 2.50357861 0 0 Z " fill="#3C166B" transform="translate(339,330)"/>
<path d="M0 0 C0.33 0.66 0.66 1.32 1 2 C-0.98 4.97 -0.98 4.97 -3 8 C-4.32 7.67 -5.64 7.34 -7 7 C-2.25 1.125 -2.25 1.125 0 0 Z " fill="#A14DEF" transform="translate(332,305)"/>
<path d="M0 0 C0.99 0 1.98 0 3 0 C3.66 3.3 4.32 6.6 5 10 C4.34 10 3.68 10 3 10 C3 9.01 3 8.02 3 7 C2.34 7 1.68 7 1 7 C0.67 4.69 0.34 2.38 0 0 Z " fill="#4A207C" transform="translate(153,257)"/>
<path d="M0 0 C1.65 0.33 3.3 0.66 5 1 C1.87378374 4.39417765 -0.56541027 6.6062718 -5 8 C-4.67 7.01 -4.34 6.02 -4 5 C-3.01 5 -2.02 5 -1 5 C-0.67 3.35 -0.34 1.7 0 0 Z " fill="#461574" transform="translate(298,314)"/>
<path d="M0 0 C5.45479185 0.56820748 9.91059256 1.94637945 15 4 C12 5 12 5 9.5625 4.5 C6.93165749 3.98666488 5.50675973 4.16441342 3 5 C3 4.01 3 3.02 3 2 C2.01 1.34 1.02 0.68 0 0 Z " fill="#141D3C" transform="translate(269,152)"/>
<path d="M0 0 C0.33 0.66 0.66 1.32 1 2 C0.0390625 3.9453125 0.0390625 3.9453125 -1.375 6.125 C-1.83648437 6.84945312 -2.29796875 7.57390625 -2.7734375 8.3203125 C-3.17820313 8.87460938 -3.58296875 9.42890625 -4 10 C-4.33 10 -4.66 10 -5 10 C-4.50769231 3.47692308 -4.50769231 3.47692308 -1.9375 1.0625 C-0.9784375 0.5365625 -0.9784375 0.5365625 0 0 Z " fill="#744DAE" transform="translate(157,183)"/>
<path d="M0 0 C0.66 0.33 1.32 0.66 2 1 C2 4 2 4 1 7 C0.443125 6.79375 -0.11375 6.5875 -0.6875 6.375 C-3.659538 5.89304789 -5.31979941 6.73434972 -8 8 C-6.1875 6 -6.1875 6 -4 4 C-3.01 4 -2.02 4 -1 4 C-0.67 2.68 -0.34 1.36 0 0 Z " fill="#9C7BE6" transform="translate(155,160)"/>
<path d="M0 0 C2.1519437 3.22791555 2.20086443 4.28400809 2 8 C0.68 7.34 -0.64 6.68 -2 6 C-2 4.35 -2 2.7 -2 1 C-1.34 0.67 -0.68 0.34 0 0 Z " fill="#AF49F8" transform="translate(341,321)"/>
<path d="M0 0 C0.33 0 0.66 0 1 0 C0.88570603 1.77155654 0.75816963 3.54226229 0.625 5.3125 C0.55539062 6.29863281 0.48578125 7.28476563 0.4140625 8.30078125 C0 11 0 11 -2 14 C-2.66 13.67 -3.32 13.34 -4 13 C-2.68 8.71 -1.36 4.42 0 0 Z " fill="#9956DF" transform="translate(338,236)"/>
<path d="M0 0 C0 3 0 3 -1.0625 4.625 C-3.87456882 6.62066174 -6.62268141 6.68138504 -10 7 C-7.48725447 3.2308817 -5.13200244 2.65280098 -1 1 C-0.67 0.67 -0.34 0.34 0 0 Z " fill="#441C7B" transform="translate(317,320)"/>
<path d="M0 0 C1.39195915 4.17587745 -0.17676781 6.13474776 -2 10 C-3.32 9.67 -4.64 9.34 -6 9 C-4.02 6.03 -2.04 3.06 0 0 Z " fill="#974FDA" transform="translate(325,266)"/>
<path d="M0 0 C2.475 0.99 2.475 0.99 5 2 C2.25 6.875 2.25 6.875 0 8 C0.33 6.35 0.66 4.7 1 3 C0.01 3.33 -0.98 3.66 -2 4 C-1.34 2.68 -0.68 1.36 0 0 Z " fill="#382F6B" transform="translate(315,272)"/>
<path d="M0 0 C1.32 0.33 2.64 0.66 4 1 C2.02 3.97 0.04 6.94 -2 10 C-2.66 9.01 -3.32 8.02 -4 7 C-3.525625 6.21625 -3.05125 5.4325 -2.5625 4.625 C-1.66101977 3.11051322 -0.78820515 1.5764103 0 0 Z " fill="#394057" transform="translate(273,204)"/>
<path d="M0 0 C2.31 0.33 4.62 0.66 7 1 C7 1.66 7 2.32 7 3 C7.66 3.33 8.32 3.66 9 4 C5.37 3.67 1.74 3.34 -2 3 C-1.34 2.01 -0.68 1.02 0 0 Z " fill="#3F1373" transform="translate(233,320)"/>
<path d="M0 0 C-1.44253657 3.36591866 -3.33264727 5.51047079 -6 8 C-5.74438677 5.6568787 -5.40729228 3.32156597 -5 1 C-3 0 -3 0 0 0 Z " fill="#712EA7" transform="translate(351,320)"/>
<path d="M0 0 C0 4.01474237 -1.66781767 5.81975137 -4 9 C-4.33 9 -4.66 9 -5 9 C-5.3125 6.75 -5.3125 6.75 -5 4 C-2.5 1.6875 -2.5 1.6875 0 0 Z " fill="#692DA3" transform="translate(356,311)"/>
<path d="M0 0 C1.65 0 3.3 0 5 0 C3.8141763 3.37503669 2.72426311 5.64722731 0 8 C0 5.36 0 2.72 0 0 Z " fill="#6E2DAA" transform="translate(326,283)"/>
<path d="M0 0 C0.66 0.33 1.32 0.66 2 1 C1.60404157 2.48484412 1.18249294 3.9628831 0.75 5.4375 C0.51796875 6.26121094 0.2859375 7.08492188 0.046875 7.93359375 C-0.29859375 8.61550781 -0.6440625 9.29742187 -1 10 C-2.32 10.33 -3.64 10.66 -5 11 C-3.35 7.37 -1.7 3.74 0 0 Z " fill="#9956E0" transform="translate(333,251)"/>
<path d="M0 0 C3.7952131 1.49097658 5.61042731 3.75700849 8 7 C7.01 7.495 7.01 7.495 6 8 C2.52082818 5.68055212 1.70570234 3.73630036 0 0 Z " fill="#1F2442" transform="translate(312,175)"/>
<path d="M0 0 C0.66 0.33 1.32 0.66 2 1 C2 1.99 2 2.98 2 4 C-0.64 4.66 -3.28 5.32 -6 6 C-4 4 -2 2 0 0 Z " fill="#745EAF" transform="translate(172,143)"/>
<path d="M0 0 C0.99 0 1.98 0 3 0 C1.70700306 2.88437779 0.34058637 4.87219421 -2 7 C-2.99 6.67 -3.98 6.34 -5 6 C-4.34 5.01 -3.68 4.02 -3 3 C-2.01 3 -1.02 3 0 3 C0 2.01 0 1.02 0 0 Z " fill="#6E35AF" transform="translate(320,295)"/>
<path d="M0 0 C3.16492205 3.75471067 3.28301994 6.09432112 3 11 C2.34 10.67 1.68 10.34 1 10 C0.5859375 7.71484375 0.5859375 7.71484375 0.375 4.9375 C0.30023438 4.01839844 0.22546875 3.09929687 0.1484375 2.15234375 C0.09945312 1.44207031 0.05046875 0.73179687 0 0 Z " fill="#4D1E76" transform="translate(153,226)"/>
<path d="M0 0 C0 0.66 0 1.32 0 2 C-2.64 2.33 -5.28 2.66 -8 3 C-8 2.34 -8 1.68 -8 1 C-5.07175348 0.02391783 -3.04386724 -0.08226668 0 0 Z " fill="#421C76" transform="translate(256,379)"/>
<path d="M0 0 C5.66153846 1.47692308 5.66153846 1.47692308 7.375 4.125 C7.684375 5.053125 7.684375 5.053125 8 6 C4.08597051 4.73058503 2.20927127 3.48832306 0 0 Z " fill="#3D1466" transform="translate(189,313)"/>
<path d="M0 0 C4.2295083 1.4098361 5.08210924 4.16421847 7 8 C4.13792848 6.71700242 1.9754912 5.469364 0 3 C0 2.01 0 1.02 0 0 Z " fill="#4C1D85" transform="translate(180,283)"/>
<path d="M0 0 C1.37553268 3.82092412 0.81309902 7.08234111 0 11 C-0.99 11.495 -0.99 11.495 -2 12 C-2.05422947 10.5629191 -2.09289723 9.12524538 -2.125 7.6875 C-2.14820313 6.88699219 -2.17140625 6.08648437 -2.1953125 5.26171875 C-2 3 -2 3 0 0 Z " fill="#A04DF0" transform="translate(340,251)"/>
<path d="M0 0 C0.66 1.32 1.32 2.64 2 4 C0.02 4.99 -1.96 5.98 -4 7 C-2.92598892 4.08482708 -2.22189824 2.22189824 0 0 Z " fill="#7B5BB3" transform="translate(146,168)"/>
<path d="M0 0 C0.66 0.33 1.32 0.66 2 1 C0.68 2.32 -0.64 3.64 -2 5 C-3.32 4.34 -4.64 3.68 -6 3 C-4.03533587 1.93224776 -2.03144641 0.93446535 0 0 Z " fill="#9898B0" transform="translate(187,134)"/>
<path d="M0 0 C-0.33 1.32 -0.66 2.64 -1 4 C-3.97 3.505 -3.97 3.505 -7 3 C-5.40442685 -0.19114631 -3.35905282 0 0 0 Z " fill="#381264" transform="translate(274,344)"/>
<path d="M0 0 C0.66 0.33 1.32 0.66 2 1 C0.515 4.96 0.515 4.96 -1 9 C-1.33 9 -1.66 9 -2 9 C-2 6.69 -2 4.38 -2 2 C-1.34 2 -0.68 2 0 2 C0 1.34 0 0.68 0 0 Z " fill="#9A44E3" transform="translate(365,288)"/>
<path d="M0 0 C1.670625 0.061875 1.670625 0.061875 3.375 0.125 C1.725 1.445 0.075 2.765 -1.625 4.125 C-2.945 3.465 -4.265 2.805 -5.625 2.125 C-3.625 0.125 -3.625 0.125 0 0 Z " fill="#8E80B5" transform="translate(269.625,271.875)"/>
<path d="M0 0 C1.98 0.99 3.96 1.98 6 3 C2.25 5 2.25 5 0 5 C0 3.35 0 1.7 0 0 Z " fill="#1E1650" transform="translate(130,247)"/>
<path d="M0 0 C-0.33 0.99 -0.66 1.98 -1 3 C-3.5625 4.1875 -3.5625 4.1875 -6 5 C-5.625 3.0625 -5.625 3.0625 -5 1 C-3 0 -3 0 0 0 Z " fill="#8B6CD3" transform="translate(160,180)"/>
<path d="M0 0 C0 3 0 3 -1 6 C-3.5625 7.1875 -3.5625 7.1875 -6 8 C-4.55746343 4.63408134 -2.66735273 2.48952921 0 0 Z " fill="#65509F" transform="translate(155,158)"/>
<path d="M0 0 C0.66 0.33 1.32 0.66 2 1 C1.67 1.66 1.34 2.32 1 3 C1.66 3.33 2.32 3.66 3 4 C0 5 0 5 -3 5 C-3.66 4.67 -4.32 4.34 -5 4 C-3.35 2.68 -1.7 1.36 0 0 Z " fill="#A2A2BC" transform="translate(179,138)"/>
</svg>
